<svg id="Ebene_1" data-name="Ebene 1" xmlns="http://www.w3.org/2000/svg" viewBox="0 0 116.71 125.37"><defs><style>.cls-1,.cls-10,.cls-3{fill:none;stroke-miterlimit:10;}.cls-1{stroke:#000;}.cls-1,.cls-10{stroke-width:2px;}.cls-2{fill:#e3032e;}.cls-10,.cls-3{stroke:#0c2231;}.cls-3{stroke-width:3px;}.cls-4{fill:#0c2231;}.cls-5{fill:#75be8e;}.cls-6{fill:#e8497f;}.cls-7{fill:#7dbc69;}.cls-8{fill:#bcd2e6;}.cls-9{fill:#e9aa00;}</style></defs><title>logo_sl_snapshooter</title><line class="cls-1" x1="67.13" y1="59.01" x2="79.41" y2="59.01"/><line class="cls-1" x1="37.25" y1="59.01" x2="49.53" y2="59.01"/><path class="cls-2" d="M83.9,95.5a20.25,20.25,0,1,0-14.52,0L55.74,131.06a58.33,58.33,0,1,1,41.81,0L83.9,95.5" transform="translate(-18.29 -18.21)"/><path class="cls-3" d="M81.07,90.13a13.77,13.77,0,1,0-9.9,0" transform="translate(-18.29 -18.21)"/><path class="cls-4" d="M76.1,105.16a23,23,0,0,1-7.83-1.36l-13,36.14A61.44,61.44,0,0,0,98,139.53L85,103.37A22.88,22.88,0,0,1,76.1,105.16Z" transform="translate(-18.29 -18.21)"/><rect class="cls-5" x="49.26" y="100.92" width="11.25" height="2.68" rx="1.26"/><rect class="cls-6" x="56.74" y="106.25" width="10.83" height="2.68" rx="1.26"/><rect class="cls-7" x="49.26" y="111.59" width="18.32" height="2.68" rx="1.26"/><rect class="cls-8" x="49.14" y="106.25" width="6.89" height="2.68" rx="1.26"/><rect class="cls-9" x="61.19" y="100.92" width="6.38" height="2.68" rx="1.26"/><line class="cls-10" x1="58.6" y1="38.2" x2="58.6" y2="51"/><line class="cls-10" x1="58.6" y1="71.28" x2="58.6" y2="84.08"/></svg>