<svg id="Ebene_1" data-name="Ebene 1" xmlns="http://www.w3.org/2000/svg" viewBox="0 0 123.01 135.35"><defs><style>.cls-1{fill:#d82034;}.cls-1,.cls-2{stroke:#fff;stroke-miterlimit:10;}.cls-2{fill:#022f51;}</style></defs><title>logo_magnet</title><path class="cls-1" d="M18,109.9H46.78v-1.74q0-16.86,0-33.73c0-7.77,2.2-14.87,7.26-20.82,8.77-10.31,20-14.25,33.09-10.81s21,12.41,23.55,25.79a35.91,35.91,0,0,1,.52,6.64c0,11,0,21.91,0,32.86v1.78H140v-1.73q0-16.86,0-33.73C140,44,118.9,18.88,89,13.69c-31-5.38-61.9,15-69.17,45.55A66.46,66.46,0,0,0,18,74.63q0,16.73,0,33.44Z" transform="translate(-17.5 -12.32)"/><path class="cls-1" d="M82.76,132.77l23-12.2.19.29c-9.22,7.8-18.43,15.61-27.76,23.52L73,131l-21,7.17-.16-.25,23.69-19Z" transform="translate(-17.5 -12.32)"/><path class="cls-2" d="M106,77H51.83v32.82h8.61v8.08l12.49-8.08H106ZM58.59,93.15a4.66,4.66,0,1,1,4.69,4.72A4.72,4.72,0,0,1,58.59,93.15Zm19.7,4.72a4.7,4.7,0,0,1-4.62-4.78,4.66,4.66,0,0,1,9.31.08A4.7,4.7,0,0,1,78.29,97.87Zm15.18,0a4.67,4.67,0,0,1-4.72-4.67,4.59,4.59,0,0,1,4.57-4.63,4.64,4.64,0,0,1,4.74,4.63A4.73,4.73,0,0,1,93.47,97.87Z" transform="translate(-17.5 -12.32)"/><rect class="cls-2" x="94.26" y="102.03" width="28.25" height="32.82"/><rect class="cls-2" x="0.5" y="102.03" width="28.25" height="32.82"/></svg>