<svg id="Ebene_2" data-name="Ebene 2" xmlns="http://www.w3.org/2000/svg" viewBox="0 0 116 122"><defs><style>.cls-1,.cls-10,.cls-2{fill:none;stroke-miterlimit:10;}.cls-1{stroke:#000;}.cls-10,.cls-2{stroke:#0c2231;}.cls-3{fill:#e3032e;}.cls-4{fill:#0c2231;}.cls-5{fill:#75be8e;}.cls-6{fill:#e8497f;}.cls-7{fill:#7dbc69;}.cls-8{fill:#bcd2e6;}.cls-9{fill:#e9aa00;}.cls-10{stroke-width:3px;}</style></defs><title>logo_sl_snapshooter</title><line class="cls-1" x1="66" y1="57" x2="78" y2="57"/><line class="cls-1" x1="38" y1="57" x2="50" y2="57"/><line class="cls-2" x1="58" y1="36" x2="58" y2="48"/><line class="cls-2" x1="58.27" y1="69.97" x2="58.27" y2="81.97"/><path class="cls-3" d="M87.22,98c10.38-3.83,15.56-15,11.58-25s-15.64-15-26-11.15S57.22,76.81,61.2,86.81A19.81,19.81,0,0,0,72.78,98L59.22,132c-29.9-11-44.83-43.36-33.35-72.15s45-43.18,74.91-32.13,44.83,43.36,33.35,72.15A56.93,56.93,0,0,1,100.78,132L87.22,98" transform="translate(-22 -24)"/><path class="cls-4" d="M79.46,107.78a22.34,22.34,0,0,1-7.69-1.36L59,142.38a59.6,59.6,0,0,0,42-.41L88.23,106A22.31,22.31,0,0,1,79.46,107.78Z" transform="translate(-22 -24)"/><rect class="cls-5" x="49.06" y="97.67" width="11.05" height="2.67" rx="1.26"/><rect class="cls-6" x="56.41" y="102.98" width="10.64" height="2.67" rx="1.26"/><rect class="cls-7" x="49.06" y="108.28" width="17.99" height="2.67" rx="1.26"/><rect class="cls-8" x="48.95" y="102.98" width="6.77" height="2.67" rx="1.26"/><rect class="cls-9" x="60.79" y="97.67" width="6.26" height="2.67" rx="1.26"/><path class="cls-10" d="M84.69,93A13.45,13.45,0,0,0,93,80.45a13,13,0,1,0-26,0A13.47,13.47,0,0,0,75.34,93" transform="translate(-22 -24)"/></svg>