<svg id="Ebene_1" data-name="Ebene 1" xmlns="http://www.w3.org/2000/svg" viewBox="0 0 109.37 117.49"><defs><style>.cls-1{fill:#e3032e;}.cls-2{fill:none;stroke:#0c2231;stroke-miterlimit:10;stroke-width:3px;}.cls-3{fill:#0c2231;}.cls-4{fill:#75be8e;}.cls-5{fill:#e8497f;}.cls-6{fill:#7dbc69;}.cls-7{fill:#bcd2e6;}.cls-8{fill:#e9aa00;}</style></defs><title>logo_sl_xsnap</title><path class="cls-1" d="M86.58,90.63a19,19,0,1,0-13.61,0L60.19,124a54.65,54.65,0,1,1,39.18,0L86.58,90.63" transform="translate(-25.09 -18.21)"/><path class="cls-2" d="M83.92,85.6a12.9,12.9,0,1,0-9.28,0" transform="translate(-25.09 -18.21)"/><path class="cls-3" d="M79.26,99.69a21.58,21.58,0,0,1-7.34-1.28L59.74,132.28a57.59,57.59,0,0,0,40.07-.38L87.62,98A21.55,21.55,0,0,1,79.26,99.69Z" transform="translate(-25.09 -18.21)"/><rect class="cls-4" x="46.16" y="94.57" width="10.54" height="2.51" rx="1.26"/><rect class="cls-5" x="53.17" y="99.57" width="10.15" height="2.51" rx="1.26"/><rect class="cls-6" x="46.16" y="104.57" width="17.16" height="2.51" rx="1.26"/><rect class="cls-7" x="46.05" y="99.57" width="6.46" height="2.51" rx="1.26"/><rect class="cls-8" x="57.34" y="94.57" width="5.98" height="2.51" rx="1.26"/></svg>