<?xml version="1.0" encoding="UTF-8"?>
<svg xmlns="http://www.w3.org/2000/svg" xmlns:xlink="http://www.w3.org/1999/xlink" version="1.2" >
<font id="SLGlyphIcons Regular">
<font-face  font-family="SLGlyphIcons" units-per-em="1000" ascent="800" descent="-200" font-style="normal" font-weight="400" font-stretch="normal" cap-height="800" x-height="400" underline-position="-75" underline-thickness="50" />
<missing-glyph  horiz-adv-x="500" d="M63 0 L63 800 L438 800 L438 0 L63 0 L63 0 Z M125 63 L375 63 L375 738 L125 738 L125 63 L125 63 Z " />
<glyph glyph-name="NULL" d="" />
<glyph glyph-name="nonmarkingreturn" unicode="&#xd;" horiz-adv-x="250" d="" />
<glyph glyph-name="space" unicode="&#x20;" horiz-adv-x="250" d="" />
<glyph glyph-name="e000" unicode="&#xe000;" horiz-adv-x="840" d="M653 725 L653 579 L391 324 L653 70 L653 -76 L227 324 L653 725 Z " />
<glyph glyph-name="e001" unicode="&#xe001;" horiz-adv-x="840" d="M653 324 L227 -76 L227 70 L489 324 L227 579 L227 725 L653 324 Z " />
<glyph glyph-name="e002" unicode="&#xe002;" horiz-adv-x="840" d="M547 732 L547 584 L278 326 L547 68 L547 -80 L110 326 L547 732 Z M710 621 L710 31 L402 326 L710 621 Z " />
<glyph glyph-name="e003" unicode="&#xe003;" horiz-adv-x="840" d="M438 326 L130 31 L130 621 L438 326 Z M730 326 L293 -80 L293 68 L562 326 L293 584 L293 732 L730 326 Z " />
<glyph glyph-name="e004" unicode="&#xe004;" horiz-adv-x="840" d="M420 91 L47 489 L183 489 L420 244 L657 489 L793 489 L420 91 Z " />
<glyph glyph-name="e005" unicode="&#xe005;" horiz-adv-x="840" d="M793 91 L657 91 L420 336 L183 91 L47 91 L420 489 L793 91 Z " />
<glyph glyph-name="e006" unicode="&#xe006;" horiz-adv-x="840" d="M177 592 L273 592 L273 32 L177 32 L177 592 Z M663 685 L663 549 L418 312 L663 75 L663 -61 L265 312 L663 685 Z " />
<glyph glyph-name="e007" unicode="&#xe007;" horiz-adv-x="840" d="M663 589 L567 589 L567 29 L663 29 L663 589 Z M575 309 L177 -64 L177 72 L422 309 L177 546 L177 682 L575 309 Z " />
<glyph glyph-name="e008" unicode="&#xe008;" horiz-adv-x="840" d="M177 590 L273 590 L273 30 L177 30 L177 590 Z M663 -63 L265 310 L663 683 L663 -63 Z " />
<glyph glyph-name="e009" unicode="&#xe009;" horiz-adv-x="840" d="M663 592 L567 592 L567 32 L663 32 L663 592 Z M177 685 L575 312 L177 -60 L177 685 Z " />
<glyph glyph-name="e00a" unicode="&#xe00a;" horiz-adv-x="840" d="M234 222 Q234 218 230 214 Q225 210 221 207 Q217 204 212 200 Q189 182 167 164 Q145 146 123 127 Q96 104 69.5 80.5 Q43 57 17 34 Q11 29 5 22.5 Q-1 16 -7 11 Q-12 6 -14.5 5.5 Q-17 5 -22 10 Q-25 12 -28 15 Q-31 18 -34 20 Q-36 24 -34 26 Q-25 37 -16.5 47 Q-8 57 1 68 Q24 97 49.5 124 Q75 151 100 179 Q108 189 117 198.5 Q126 208 134 217 Q135 219 135 222 Q115 266 95 309 Q75 352 55 397 Q53 402 51 406.5 Q49 411 47 416 Q46 419 49 422 Q57 430 68 433 Q71 435 73 431 Q79 425 82 421 Q112 380 142.5 340 Q173 300 205 260 Q210 252 216.5 245.5 Q223 239 229 232 Q230 230 231 229 Q232 228 233 226 Q234 225 234 222 Z M545 222 Q543 217 540 214 Q535 210 531 207 Q527 204 522 200 Q499 182 477 164 Q455 146 433 127 Q406 104 379.5 80.5 Q353 57 327 34 Q321 29 315 22.5 Q309 16 303 11 Q298 6 295.5 5.5 Q293 5 288 10 Q285 12 282 15 Q279 18 277 20 Q274 23 276 26 Q285 37 293.5 47 Q302 57 311 68 Q335 97 360 124 Q385 151 410 179 Q418 189 427 198.5 Q436 208 444 217 Q446 219 445 222 Q425 266 405.5 309 Q386 352 366 397 Q364 402 362 406.5 Q360 411 358 416 Q355 418 359 422 Q367 430 378 433 Q381 435 383 431 Q389 425 392 421 Q422 380 452.5 340 Q483 300 515 260 Q520 252 526.5 245.5 Q533 239 539 232 Q540 230 541 229 Q542 228 543 226 Q543 226 545 222 Z M855 222 Q853 217 850 214 Q845 210 841 207 Q837 204 832 200 Q809 182 787 164 Q765 146 743 127 Q717 104 690.5 80.5 Q664 57 637 34 Q631 29 625 22.5 Q619 16 613 11 Q608 6 605.5 5.5 Q603 5 598 10 Q595 12 592 15 Q589 18 587 20 Q584 23 586 26 Q595 37 603.5 47 Q612 57 621 68 Q645 97 670 124 Q695 151 720 179 Q728 189 737 198.5 Q746 208 754 217 Q756 219 755 222 Q735 266 715.5 309 Q696 352 676 397 Q674 402 672 406.5 Q670 411 668 416 Q666 419 669 422 Q677 430 688 433 Q691 435 693 431 Q699 425 702 421 Q732 380 762.5 340 Q793 300 825 260 Q830 252 836.5 245.5 Q843 239 849 232 Q850 230 851 229 Q852 228 853 226 Q853 226 855 222 Z " />
<glyph glyph-name="e00b" unicode="&#xe00b;" horiz-adv-x="840" d="M465 617 Q531 617 589.5 591.5 Q648 566 691.5 522.5 Q735 479 760.5 420.5 Q786 362 786 296 Q786 230 760.5 171.5 Q735 113 691.5 69.5 Q648 26 589.5 0.5 Q531 -25 465 -25 Q416 -25 371 -11 Q326 3 288 28 L342 110 Q368 93 399 83 Q430 73 465 73 Q511 73 551.5 90.5 Q592 108 622.5 138.5 Q653 169 670.5 209.5 Q688 250 688 296 Q688 342 670.5 382.5 Q653 423 622.5 453.5 Q592 484 551.5 501.5 Q511 519 465 519 Q428 519 395 507.5 Q362 496 334.5 476 Q307 456 286.5 428 Q266 400 255 367 L371 367 L196 100 L34 369 L152 368 Q164 421 193.5 466.5 Q223 512 264 545.5 Q305 579 356.5 598 Q408 617 465 617 Z " />
<glyph glyph-name="e00c" unicode="&#xe00c;" horiz-adv-x="840" d="M593 518 Q561 551 517 570 Q473 589 422 589 Q372 589 328.5 570 Q285 551 252 519 Q220 486 201 442.5 Q182 399 182 349 L77 349 Q77 420 104 483 Q131 546 178 592.5 Q225 639 288 666 Q351 693 422 693 Q494 693 557 666.5 Q620 640 667 592 L745 669 L745 435 L511 435 L593 518 Z M317 239 L231 152 Q263 120 306.5 101.5 Q350 83 400 83 Q450 83 493.5 102 Q537 121 570 153 Q602 186 621 229.5 Q640 273 640 323 L745 323 Q745 252 718 189 Q691 126 644 79 Q597 32 534 5 Q471 -22 400 -22 Q328 -22 266 5 Q204 32 157 78 L77 -1 L77 239 L317 239 Z " />
<glyph glyph-name="e00d" unicode="&#xe00d;" horiz-adv-x="840" d="M128 1 L128 165 L341 362 L128 559 L128 723 L420 434 L712 723 L712 559 L499 362 L712 165 L712 1 L420 290 L128 1 Z " />
<glyph glyph-name="e00e" unicode="&#xe00e;" horiz-adv-x="840" d="M266 3 L266 100 L378 202 L266 305 L266 402 L430 251 L594 402 L594 305 L483 202 L594 100 L594 3 L430 154 L266 3 Z " />
<glyph glyph-name="e00f" unicode="&#xe00f;" horiz-adv-x="840" d="M329 121 L741 725 L741 523 L347 -54 L110 188 L110 345 L329 121 Z " />
<glyph glyph-name="e010" unicode="&#xe010;" horiz-adv-x="840" d="M400 800 Q483 800 556 768.5 Q629 737 683 683 Q737 629 768.5 556 Q800 483 800 400 Q800 317 768.5 244 Q737 171 683 117 Q629 63 556 31.5 Q483 0 400 0 Q317 0 244 31.5 Q171 63 117 117 Q63 171 31.5 244 Q0 317 0 400 Q0 483 31.5 556 Q63 629 117 683 Q171 737 244 768.5 Q317 800 400 800 Z M651 447 L151 447 L151 353 L651 353 L651 447 Z " />
<glyph glyph-name="e011" unicode="&#xe011;" horiz-adv-x="840" d="M593 243 L337 2 L337 90 L495 243 L337 395 L337 483 L593 243 Z " />
<glyph glyph-name="e012" unicode="&#xe012;" horiz-adv-x="840" d="M541 284 L199 -37 L199 80 L409 283 L199 487 L199 604 L541 284 Z " />
<glyph glyph-name="e013" unicode="&#xe013;" horiz-adv-x="793" d="M427 725 L427 579 L164 324 L427 70 L427 -76 L0 324 L427 725 Z M666 685 L666 553 L429 324 L666 95 L666 -36 L281 324 L666 685 Z " />
<glyph glyph-name="e014" unicode="&#xe014;" horiz-adv-x="696" d="M414 324 L30 -36 L30 95 L266 324 L30 553 L30 685 L414 324 Z M696 324 L269 -76 L269 70 L531 324 L269 579 L269 725 L696 324 Z " />
<glyph glyph-name="e015" unicode="&#xe015;" horiz-adv-x="812" d="M0 463 L148 463 L406 194 L664 463 L812 463 L406 26 L0 463 Z M111 626 L701 626 L406 318 L111 626 Z " />
<glyph glyph-name="e016" unicode="&#xe016;" horiz-adv-x="812" d="M812 189 L664 189 L406 458 L148 189 L0 189 L406 626 L812 189 Z M701 26 L111 26 L406 334 L701 26 Z " />
<glyph glyph-name="e017" unicode="&#xe017;" horiz-adv-x="840" d="M400 800 Q483 800 556 768.5 Q629 737 683 683 Q737 629 768.5 556 Q800 483 800 400 Q800 317 768.5 244 Q737 171 683 117 Q629 63 556 31.5 Q483 0 400 0 Q317 0 244 31.5 Q171 63 117 117 Q63 171 31.5 244 Q0 317 0 400 Q0 483 31.5 556 Q63 629 117 683 Q171 737 244 768.5 Q317 800 400 800 Z M651 447 L445 447 L445 648 L351 648 L351 447 L151 447 L151 353 L351 353 L351 148 L445 148 L445 353 L651 353 L651 447 Z " />
<glyph glyph-name="e018" unicode="&#xe018;" horiz-adv-x="619" d="M250 72 L518 72 L518 728 L250 728 L250 800 L590 800 L590 764 L590 36 L590 0 L250 0 L250 72 Z M249 237 L426 406 L249 576 L249 512 L334 434 L0 434 L0 379 L334 379 L249 301 L249 237 Z " />
<glyph glyph-name="e019" unicode="&#xe019;" horiz-adv-x="619" d="M413 301 L498 379 L164 379 L164 434 L498 434 L413 512 L413 576 L590 406 L413 237 L413 301 Z M340 0 L0 0 L0 36 L0 764 L0 800 L340 800 L340 728 L72 728 L72 72 L340 72 L340 0 Z " />
<glyph glyph-name="e01a" unicode="&#xe01a;" horiz-adv-x="1210" d="M1151 665 L0 665 L0 800 L1151 800 L1151 665 Z M1151 338 L0 338 L0 473 L1151 473 L1151 338 Z M1152 0 L1 0 L1 135 L1152 135 L1152 0 Z " />
<glyph glyph-name="e01b" unicode="&#xe01b;" horiz-adv-x="967" d="M488 73 Q535 119 581.5 165.5 Q628 212 676 260 L8 260 L8 361 L921 361 L560 0 Q542 18 524 36 Q506 54 488 73 Z M914 540 L914 440 L0 440 L360 800 L432 728 Q386 682 339.5 635 Q293 588 245 540 L914 540 Z " />
<glyph glyph-name="e01c" unicode="&#xe01c;" horiz-adv-x="778" d="M321 68 L-11 379 L321 690 L321 577 L162 423 L789 423 L789 335 L162 335 L321 181 L321 68 Z " />
<glyph glyph-name="e01d" unicode="&#xe01d;" horiz-adv-x="778" d="M587 447 L433 606 L433 -21 L345 -21 L345 606 L191 447 L78 447 L389 779 L700 447 L587 447 Z " />
<glyph glyph-name="e01e" unicode="&#xe01e;" horiz-adv-x="778" d="M577 287 L581 508 L137 65 L75 127 L518 570 L297 567 L217 647 L672 662 L657 207 L577 287 Z " />
<glyph glyph-name="e01f" unicode="&#xe01f;" horiz-adv-x="778" d="M457 181 L616 335 L-11 335 L-11 423 L616 423 L457 577 L457 690 L789 379 L457 68 L457 181 Z " />
<glyph glyph-name="e020" unicode="&#xe020;" horiz-adv-x="778" d="M297 191 L518 187 L75 631 L137 693 L580 250 L577 470 L657 551 L672 96 L217 111 L297 191 Z " />
<glyph glyph-name="e021" unicode="&#xe021;" horiz-adv-x="778" d="M191 311 L345 152 L345 779 L433 779 L433 152 L587 311 L700 311 L389 -21 L78 311 L191 311 Z " />
<glyph glyph-name="e022" unicode="&#xe022;" horiz-adv-x="735" d="M700 0 L0 0 L0 79 L700 79 L700 0 Z M108 113 L0 113 L0 570 L108 570 L108 113 Z M502 113 L394 113 L394 490 L502 490 L502 113 Z M700 113 L592 113 L592 332 L700 332 L700 113 Z M305 113 L197 113 L197 800 L305 800 L305 113 Z " />
<glyph glyph-name="e023" unicode="&#xe023;" horiz-adv-x="840" d="M535 347 L650 474 L650 -2 L535 -2 L535 347 Z M370 194 L485 308 L485 -2 L370 -2 L370 194 Z M202 217 L268 295 L317 217 L317 -3 L202 -3 L202 217 Z M166 -2 L37 -2 L37 40 L166 169 L166 -2 Z M38 105 L38 220 L274 464 L367 369 L599 610 L549 658 L807 761 L706 505 L660 557 L369 252 L274 347 L38 105 Z " />
<glyph glyph-name="e024" unicode="&#xe024;" horiz-adv-x="840" d="M155 86 L716 86 L716 0 L155 0 L155 0 L68 0 L68 0 L68 86 L68 625 L155 625 L155 86 Z M781 568 L773 492 L766 417 L726 456 L565 294 L451 409 L255 211 L201 265 L452 519 L566 404 L672 511 L631 552 L706 560 L781 568 Z " />
<glyph glyph-name="e025" unicode="&#xe025;" horiz-adv-x="1000" d="M249 177 L412 188 L532 143 L756 325 L725 363 L523 199 L419 237 L225 224 L150 131 L187 100 L249 177 Z M622 499 L755 530 L744 577 L594 542 L454 350 L297 418 L158 353 L179 308 L298 365 L470 290 L622 499 Z M146 85 L716 85 L716 -2 L146 -2 L146 -2 L58 -2 L58 -2 L58 85 L58 632 L146 632 L146 85 Z " />
<glyph glyph-name="e026" unicode="&#xe026;" horiz-adv-x="840" d="M66 677 L159 677 L159 0 L66 0 L66 677 Z M66 93 L768 93 L768 0 L66 0 L66 93 Z M227 283 L227 459 L374 459 L465 560 L606 560 L772 643 L772 389 L596 472 L459 317 L350 357 L227 283 Z M222 171 L777 171 L777 320 L601 395 L473 251 L355 291 L222 171 Z " />
<glyph glyph-name="e027" unicode="&#xe027;" horiz-adv-x="840" d="M366 372 L120 125 Q83 173 62 231.5 Q41 290 41 355 Q41 427 66 490 Q91 553 135 604 L366 372 Z M429 338 L798 338 Q795 263 764 197 Q733 131 682 82 Q631 33 563.5 4.5 Q496 -24 420 -24 Q346 -24 281.5 2.5 Q217 29 166 75 L429 338 Z M429 406 L184 651 Q233 690 293 712 Q353 734 420 734 Q492 734 556 709 Q620 684 670.5 639.5 Q721 595 754 535 Q787 475 796 406 L429 406 Z " />
<glyph glyph-name="e028" unicode="&#xe028;" horiz-adv-x="840" d="M500 285 Q514 301 522 324 L796 324 Q788 238 745.5 166.5 Q703 95 636 48 L500 285 L500 285 Z M420 466 Q399 466 380.5 458.5 Q362 451 348 438 L111 575 Q163 648 243 692 Q323 736 420 736 Q494 736 560 709 Q626 682 676.5 635.5 Q727 589 758.5 526 Q790 463 796 390 L523 390 Q512 423 484 444.5 Q456 466 420 466 Z M420 249 Q431 249 442 252 L579 15 Q542 -2 502.5 -11 Q463 -20 420 -20 Q323 -20 242.5 24 Q162 68 110 141 L347 278 Q361 264 380 256.5 Q399 249 420 249 Z M312 358 Q312 352 312 346.5 Q312 341 314 336 L77 199 Q60 235 51 275 Q42 315 42 358 Q42 401 51.5 441 Q61 481 78 517 L314 381 Q313 375 312.5 369.5 Q312 364 312 358 Z " />
<glyph glyph-name="e029" unicode="&#xe029;" horiz-adv-x="1000" d="" />
<glyph glyph-name="e02a" unicode="&#xe02a;" horiz-adv-x="1000" d="" />
<glyph glyph-name="e02b" unicode="&#xe02b;" horiz-adv-x="1000" d="" />
<glyph glyph-name="e02c" unicode="&#xe02c;" horiz-adv-x="1000" d="" />
<glyph glyph-name="e02d" unicode="&#xe02d;" horiz-adv-x="1000" d="" />
<glyph glyph-name="e02e" unicode="&#xe02e;" horiz-adv-x="1000" d="" />
<glyph glyph-name="e02f" unicode="&#xe02f;" horiz-adv-x="1000" d="" />
<glyph glyph-name="e030" unicode="&#xe030;" horiz-adv-x="1000" d="" />
<glyph glyph-name="e031" unicode="&#xe031;" horiz-adv-x="840" d="M399 760 Q417 760 433 753 Q449 746 460.5 734.5 Q472 723 478.5 707.5 Q485 692 485 674 Q485 638 460 612.5 Q435 587 399 587 Q363 587 338 612.5 Q313 638 313 674 Q313 692 319.5 707.5 Q326 723 338 734.5 Q350 746 365.5 753 Q381 760 399 760 Z M368 698 Q365 699 362 699.5 Q359 700 354 700 Q342 700 332 692 Q324 682 324 669 Q324 656 331 649 Q339 641 352 641 Q362 641 368 644 L368 656 Q363 652 355 652 Q347 652 342 657 Q337 662 337 670 Q337 679 342 684 Q349 689 355 689 Q362 689 368 686 L368 698 Z M428 699 L415 699 L415 676 L391 676 L391 699 L378 699 L378 642 L391 642 L391 665 L415 665 L415 642 L428 642 L428 699 Z M454 675 L454 689 L474 689 L474 699 L441 699 L441 642 L454 642 L454 664 L472 664 L472 675 L454 675 Z M758 521 Q764 513 754 513 L45 513 Q40 513 40 516 Q38 517 39 518.5 Q40 520 41 521 L301 633 Q313 604 339.5 585 Q366 566 399 566 Q433 566 459.5 585 Q486 604 497 633 L758 521 L758 521 Z M527 183 L641 183 L641 461 L527 461 L527 183 Z M744 63 Q744 62 745 62 Q746 62 744 63 Q746 62 744 61 L744 51 Q744 43 736 43 L59 43 Q53 43 53 51 L53 61 Q53 66 57 66 L57 67 L109 128 L690 128 L740 67 Q743 67 744 63 Z M345 180 L459 180 L459 459 L345 459 L345 180 Z M164 181 L278 181 L278 461 L164 461 L164 181 Z " />
<glyph glyph-name="e032" unicode="&#xe032;" horiz-adv-x="840" d="M806 20 Q806 19 806.5 19 Q807 19 807 18 L807 8 Q807 -1 798 -1 L40 -1 Q31 -1 31 8 L31 18 Q31 22 35 24 L35 25 L94 94 L745 94 L803 25 Q805 23 805 21 L806 20 L806 20 Z M668 466 L668 153 L176 153 L176 466 L668 466 Z M820 533 Q826 525 816 525 L21 525 Q11 525 17 533 L413 702 Q418 709 425 702 L820 533 L820 533 Z " />
<glyph glyph-name="e033" unicode="&#xe033;" horiz-adv-x="840" d="M806 20 Q806 19 806.5 19 Q807 19 807 18 L807 8 Q807 -1 798 -1 L40 -1 Q31 -1 31 8 L31 18 Q31 22 35 24 L35 25 L94 94 L745 94 L803 25 Q805 23 805 21 L806 20 L806 20 Z M668 467 L668 154 L480 154 L480 467 L668 467 Z M365 466 L365 153 L176 153 L176 466 L365 466 Z M820 533 Q826 525 816 525 L21 525 Q11 525 17 533 L413 702 Q418 709 425 702 L820 533 L820 533 Z " />
<glyph glyph-name="e034" unicode="&#xe034;" horiz-adv-x="840" d="M806 23 Q806 22 806.5 22 Q807 22 807 21 L807 11 Q807 2 798 2 L41 2 Q33 2 33 11 L33 21 Q33 26 37 27 L37 28 L95 97 L745 97 L802 28 Q805 26 805 24 L806 23 L806 23 Z M689 469 L689 157 L562 157 L562 469 L689 469 Z M485 466 L485 154 L358 154 L358 466 L485 466 Z M284 468 L284 155 L157 155 L157 468 L284 468 Z M820 535 Q826 527 816 527 L23 527 Q18 527 17 529.5 Q16 532 19 535 L413 704 Q420 711 425 704 L820 535 L820 535 Z " />
<glyph glyph-name="e035" unicode="&#xe035;" horiz-adv-x="840" d="M625 258 L582 408 L538 408 L605 210 L644 210 L711 408 L669 408 L625 258 Z M382 210 L382 298 L458 298 L458 210 L499 210 L499 408 L458 408 L458 333 L382 333 L382 408 L341 408 L341 210 L382 210 Z M115 210 L158 210 L171 251 L244 251 L257 210 L302 210 L232 408 L185 408 L115 210 Z M208 363 L233 285 L183 285 L208 363 Z M807 21 Q807 21 808 19 L808 9 Q808 0 799 0 L39 0 Q30 0 30 9 L30 19 Q30 22 34 26 L92 95 L746 95 L803 26 Q806 24 806 22 L807 22 L807 21 Z M821 536 Q827 528 817 528 L20 528 Q10 528 16 536 L412 705 Q419 714 424 705 L821 536 L821 536 Z " />
<glyph glyph-name="e036" unicode="&#xe036;" horiz-adv-x="840" d="M710 348 Q705 376 683 396 Q658 416 621 416 Q577 416 550 386 Q523 357 523 308 Q523 260 550 232 Q576 204 615 204 Q638 204 656 214 Q665 219 678 234 L682 209 L710 209 L710 317 L627 317 L627 284 L673 284 Q670 264 656 252 Q642 240 622 240 Q601 240 583 255 Q566 270 566 308 Q566 344 582 363 Q597 381 622 381 Q636 381 645 377 Q664 368 668 348 L710 348 Z M406 258 L363 411 L318 411 L386 209 L425 209 L494 411 L450 411 L406 258 Z M207 298 Q219 298 227 295 Q240 289 240 273 Q240 254 227 248 Q220 244 206 244 L158 244 L158 298 L207 298 Z M201 376 Q217 376 225 372 Q236 369 236 354 Q236 342 228 336 Q218 331 206 331 L158 331 L158 376 L201 376 Z M267 389 Q251 411 215 411 L117 411 L117 209 L208 209 Q224 209 236 212 Q251 215 259 222 Q268 228 273 238 Q282 253 282 270 Q282 287 275 300 Q265 313 251 317 Q260 322 267 329 Q276 339 276 358 Q276 377 267 389 Z M807 21 Q807 21 808 19 L808 9 Q808 0 799 0 L38 0 Q30 0 30 9 L30 19 Q30 23 34 26 L92 95 L746 95 L803 26 Q804 25 806 22 L807 22 L807 21 Z M821 536 Q827 528 817 528 L20 528 Q15 528 14 530.5 Q13 533 16 536 L412 705 Q419 714 424 705 L821 536 L821 536 Z " />
<glyph glyph-name="e037" unicode="&#xe037;" horiz-adv-x="840" d="M373 409 L373 211 L513 211 L513 247 L416 247 L416 409 L373 409 Z M615 258 L572 408 L528 408 L595 210 L634 210 L701 408 L659 408 L615 258 Z M125 210 L168 210 L181 251 L254 251 L267 210 L312 210 L242 408 L195 408 L125 210 Z M218 363 L243 285 L193 285 L218 363 Z M807 21 Q807 21 808 19 L808 9 Q808 0 799 0 L39 0 Q30 0 30 9 L30 19 Q30 22 34 26 L92 95 L746 95 L803 26 Q806 24 806 22 L807 22 L807 21 Z M821 536 Q827 528 817 528 L20 528 Q10 528 16 536 L412 705 Q419 714 424 705 L821 536 L821 536 Z " />
<glyph glyph-name="e038" unicode="&#xe038;" horiz-adv-x="888" d="M180 780 Q217 780 250 766 Q283 752 307.5 727.5 Q332 703 346 670 Q360 637 360 600 Q360 563 346 530 Q332 497 307.5 472.5 Q283 448 250 434 Q217 420 180 420 Q143 420 110 434 Q77 448 52.5 472.5 Q28 497 14 530 Q0 563 0 600 Q0 637 14 670 Q28 703 52.5 727.5 Q77 752 110 766 Q143 780 180 780 Z M236 587 Q237 590 237.5 592.5 Q238 595 238 598 Q238 607 235 613 Q230 620 225 626 Q223 628 219.5 630.5 Q216 633 212 635 Q205 640 198 643 Q194 645 190.5 647 Q187 649 183 651 Q179 653 176 654.5 Q173 656 171 658 Q165 662 162 667 Q158 671 158 677 Q158 685 164 691 Q171 696 178 696 Q189 696 194 691 Q196 688 198 682 Q199 679 200 677 L226 677 Q226 680 225 683 Q224 685 223.5 688 Q223 691 222 693 Q220 698 218 699.5 Q216 701 212 704 Q206 710 197 713 Q188 716 178 716 Q171 716 161 714 Q153 711 146 706 Q140 701 135 693 Q131 686 131 676 Q131 669 133 663 Q137 655 141 652 Q128 646 122 638 Q115 630 115 616 Q115 606 119 601 Q122 594 128 588 Q131 586 134.5 583 Q138 580 142 578 Q146 576 149.5 574 Q153 572 157 570 Q161 568 164.5 566 Q168 564 172 562 Q176 560 179.5 558 Q183 556 186 554 Q188 552 190.5 549.5 Q193 547 195 545 Q199 537 199 533 Q199 522 193 518 Q188 514 178 514 Q165 514 159 521 Q156 524 154 533 Q153 537 153 542 L127 542 Q127 537 128 533 Q129 529 129 525.5 Q129 522 131 520 Q136 510 142 505 Q147 499 158 495 Q167 492 178 492 Q186 492 196 494 Q204 497 211 502 Q217 507 222 515 Q226 522 226 533 Q226 543 223 551 Q218 558 213 564 Q220 566 223 569 Q225 571 227 573 Q229 575 231 577 Q235 583 236 587 Z M195 615 Q205 611 209 605 Q212 600 212 595 Q212 587 208 583 Q204 579 198 576 L154 600 Q151 602 147 606 Q144 609 143 611 Q142 613 142 613.5 Q142 614 141 616 L141 619 Q141 627 145 631 Q149 637 156 638 L195 615 L195 615 Z M374 128 Q372 127 371 127 Q370 127 368 126 Q283 110 195 122 Q169 125 144.5 131.5 Q120 138 97 152 Q89 157 80.5 164 Q72 171 70 179 Q67 194 68 209 Q69 224 69 237 Q81 231 93 223 Q105 215 119 210 Q167 191 217 187.5 Q267 184 318 189 Q338 191 359 194.5 Q380 198 403 201 Q401 195 400 189 Q399 183 395 178 Q386 167 380.5 155.5 Q375 144 374 128 Z M394 4 Q390 2 381 -1 Q324 -18 266.5 -20 Q209 -22 151 -12 Q128 -8 105.5 -1 Q83 6 63 20 Q56 25 50.5 32 Q45 39 43 47 Q41 61 41.5 75.5 Q42 90 42 107 Q59 87 80 78 Q101 69 124 63 Q172 51 220 49.5 Q268 48 317 54 Q331 56 345 59 Q359 62 371 64 Q377 49 382.5 34 Q388 19 394 4 Z M818 111 Q818 98 817.5 87 Q817 76 818 65 Q820 51 813.5 41 Q807 31 796 24 Q786 19 776 13.5 Q766 8 755 5 Q698 -13 640 -15 Q582 -17 523 -7 Q500 -2 477.5 4.5 Q455 11 435 26 Q429 31 423 37 Q417 43 416 51 Q414 65 414.5 80 Q415 95 415 112 Q431 94 449.5 85 Q468 76 488 71 Q546 55 604 54 Q662 53 721 65 Q747 70 772.5 79.5 Q798 89 818 111 Z M808 385 Q808 372 807.5 360.5 Q807 349 808 338 Q809 313 788 299 Q777 293 766.5 287.5 Q756 282 745 279 Q688 261 630 259 Q572 257 513 267 Q490 271 467.5 278 Q445 285 425 299 Q419 304 413 310.5 Q407 317 406 324 Q404 339 404.5 353.5 Q405 368 405 385 Q421 368 440 358.5 Q459 349 479 344 Q536 329 594 328 Q652 327 711 338 Q737 343 762 353 Q787 363 808 385 Z M818 522 Q818 511 817.5 502.5 Q817 494 818 486 Q822 462 811 448 Q800 434 780 425 Q770 420 755 415 Q698 398 640 396 Q582 394 523 404 Q500 408 478 415 Q456 422 436 436 Q429 441 423 447.5 Q417 454 416 462 Q414 476 414.5 490.5 Q415 505 415 522 Q431 505 449.5 495.5 Q468 486 488 481 Q546 466 604 465 Q662 464 721 475 Q747 480 772.5 490 Q798 500 818 522 Z M398 272 Q390 269 384.5 267 Q379 265 374 263 Q355 259 336 255 Q317 251 298 249 Q247 244 196.5 247.5 Q146 251 97 269 Q83 274 70.5 281.5 Q58 289 47 298 Q36 307 36 320 Q36 333 48 343 Q59 352 71 359.5 Q83 367 97 372 Q160 393 222.5 394 Q285 395 348 384 Q357 382 361 378.5 Q365 375 365 364 Q364 339 368 314.5 Q372 290 398 272 Z M846 230 Q845 225 844 221 Q843 217 844 213 Q848 187 835.5 173 Q823 159 803 150 Q797 148 791.5 146 Q786 144 780 142 Q723 124 665.5 122 Q608 120 550 130 Q526 134 503.5 141 Q481 148 461 162 Q455 167 449 173 Q443 179 442 187 Q439 201 440 216 Q441 231 441 248 Q457 232 472.5 223 Q488 214 513 207 Q563 193 613 191 Q663 189 714 196 Q734 199 753.5 203.5 Q773 208 791 215 Q806 221 819 230.5 Q832 240 846 248 L846 230 Z M623 674 Q631 672 635 672 Q664 670 692 666.5 Q720 663 748 653 Q773 644 796 629 Q815 616 815 599.5 Q815 583 797 569 Q789 563 780 557.5 Q771 552 761 550 Q737 543 712.5 537 Q688 531 663 529 Q615 523 567.5 526 Q520 529 474 545 Q459 550 445 557.5 Q431 565 418 575 Q404 585 404.5 598.5 Q405 612 417 623 Q422 628 428.5 632.5 Q435 637 442 641 Q466 654 492.5 659.5 Q519 665 546 669 Q559 671 571.5 671.5 Q584 672 597 674 L623 674 Z " />
<glyph glyph-name="e039" unicode="&#xe039;" horiz-adv-x="837" d="" />
<glyph glyph-name="e03a" unicode="&#xe03a;" horiz-adv-x="1000" d="" />
<glyph glyph-name="e03b" unicode="&#xe03b;" horiz-adv-x="1000" d="" />
<glyph glyph-name="e03c" unicode="&#xe03c;" horiz-adv-x="1000" d="" />
<glyph glyph-name="e03d" unicode="&#xe03d;" horiz-adv-x="1000" d="" />
<glyph glyph-name="e03e" unicode="&#xe03e;" horiz-adv-x="1000" d="" />
<glyph glyph-name="e03f" unicode="&#xe03f;" horiz-adv-x="888" d="" />
<glyph glyph-name="e040" unicode="&#xe040;" horiz-adv-x="1000" d="" />
<glyph glyph-name="e041" unicode="&#xe041;" horiz-adv-x="840" d="M823 215 Q823 213 822 208 Q821 203 821 201 Q821 203 816 211.5 Q811 220 781 229 Q757 237 715 237 Q673 237 619 232 Q650 217 679.5 205.5 Q709 194 734 187.5 Q759 181 778 179.5 Q797 178 807 183 Q809 184 811.5 186.5 Q814 189 816 191 Q819 194 821 197 Q820 191 818 186 Q816 181 815 177 Q814 173 813 171 Q810 167 804.5 163.5 Q799 160 793 158 Q778 154 752 156.5 Q726 159 694 167.5 Q662 176 626.5 190 Q591 204 557 224 Q480 213 401 193.5 Q322 174 254 152 Q188 35 137 -16 Q86 -67 46 -47 L26 -37 Q20 -33 18.5 -26 Q17 -19 18 -12 Q23 11 52.5 44 Q82 77 141 112 Q144 114 151 118 Q158 122 166 126 L186 136 Q179 128 172 122 Q166 117 160 111.5 Q154 106 152 104 Q129 85 109 64.5 Q89 44 74.5 25 Q60 6 52.5 -10 Q45 -26 46 -35 L46 -37 Q86 -31 144 48 Q202 127 279 276 Q297 312 316.5 351.5 Q336 391 353 432 L362 454 Q340 537 329.5 602 Q319 667 331 711 Q334 722 345.5 728.5 Q357 735 371 735 L383 735 L385 735 Q394 735 401 730 Q408 725 413 717.5 Q418 710 420.5 702.5 Q423 695 423 690 Q425 673 421 654 Q419 644 416 634 Q416 645 415 660.5 Q414 676 407 691 Q391 727 378 730 Q370 725 367 709 Q365 696 364 682 Q363 668 363 660 Q363 631 369 593.5 Q375 556 386 516 Q388 522 389.5 528 Q391 534 393 540 Q395 544 398.5 558.5 Q402 573 406 589 Q410 607 416 629 Q415 600 413 574 Q411 551 408.5 528.5 Q406 506 404 495 Q403 486 399 475 Q418 422 447 377 Q476 332 512 299 Q526 285 543.5 274.5 Q561 264 578 254 Q615 259 648 261.5 Q681 264 710 264 Q748 263 774.5 257.5 Q801 252 812 241 Q821 232 823 215 Z M262 171 Q325 197 391.5 215 Q458 233 524 245 Q505 257 490 270 Q454 301 427 337.5 Q400 374 380 414 Q367 380 351 343 Q335 306 311 259 Q298 235 285.5 213 Q273 191 262 171 Z " />
<glyph glyph-name="e042" unicode="&#xe042;" horiz-adv-x="840" d="M754 571 L754 72 Q754 37 730.5 13 Q707 -11 674 -11 L228 -11 Q195 -11 172 13 Q149 37 149 72 L149 154 L0 154 L0 430 L149 430 L149 686 Q149 720 172 744 Q195 768 228 768 L552 768 L754 571 Z M173 279 Q189 292 189 326 Q189 356 173 371 Q156 385 129 385 L49 385 L49 199 L87 199 L87 266 L126 266 Q157 266 173 279 Z M690 543 L529 543 L529 702 L228 702 Q212 702 212 686 L212 430 L574 430 L574 154 L212 154 L212 72 Q212 55 228 55 L674 55 Q690 55 690 72 L690 543 Z M298 199 Q342 199 361 233 Q376 260 376 296 Q376 312 372 327 Q369 344 359 357 Q347 375 327 381 Q318 385 298 385 L218 385 L218 199 L298 199 Z M441 309 L441 352 L536 352 L536 385 L403 385 L403 199 L441 199 L441 277 L524 277 L524 309 L441 309 Z M292 353 Q318 353 327 337 Q336 322 336 294 Q336 273 330 258 Q319 231 292 231 L256 231 L256 353 L292 353 L292 353 Z M123 353 Q136 353 143 346 Q151 340 151 326 Q151 312 143 304 Q135 298 123 298 L87 298 L87 353 L123 353 L123 353 Z " />
<glyph glyph-name="e043" unicode="&#xe043;" horiz-adv-x="840" d="M384 428 Q401 394 424 363.5 Q447 333 477 307 Q483 302 490 296.5 Q497 291 505 286 Q450 275 394.5 260.5 Q339 246 285 224 Q295 241 305 259.5 Q315 278 326 298 Q346 337 359.5 368 Q373 399 384 428 Z M796 745 L796 -11 L40 -11 L40 745 L796 745 Z M754 249 Q755 251 755.5 255 Q756 259 756 261 Q755 267 753.5 272.5 Q752 278 747 283 Q737 292 715 296.5 Q693 301 661 302 Q611 302 550 293 Q536 301 521.5 310.5 Q507 320 495 331 Q465 360 440.5 397.5 Q416 435 400 479 Q402 484 402.5 487.5 Q403 491 405 496 Q407 506 408 524.5 Q409 543 411 562 Q413 584 414 608 L406 574 Q403 560 399.5 548.5 Q396 537 395 533 Q394 525 389 514 Q380 547 375 578.5 Q370 610 370 634 Q370 642 370.5 653.5 Q371 665 373 676 Q376 689 382 694 Q393 691 407 661 Q413 648 413.5 635 Q414 622 414 613 Q416 621 418 630 Q421 645 421 660 Q420 664 418 670.5 Q416 677 412 683 Q408 689 402 693.5 Q396 698 388 698 L386 698 L377 698 Q365 698 355 692.5 Q345 687 343 677 Q333 641 342 586 Q351 531 369 461 L362 443 Q348 409 331 375.5 Q314 342 299 312 Q171 60 104 49 L103 51 Q103 59 109.5 72 Q116 85 128 101 Q140 117 156.5 134.5 Q173 152 193 168 Q195 170 199.5 174 Q204 178 209 183 L221 195 Q213 190 205 186 Q198 182 191.5 179 Q185 176 183 174 Q134 145 109.5 117.5 Q85 90 80 70 Q79 65 80.5 58.5 Q82 52 87 49 L103 41 Q137 24 179.5 67 Q222 110 278 208 Q335 226 401.5 242.5 Q468 259 533 268 Q561 252 591 240 Q621 228 648 221 Q675 214 696.5 212 Q718 210 731 213 Q740 215 748 224 Q751 229 752 236 L754 246 Q752 244 750 241 Q746 236 743 234 Q726 226 681.5 237.5 Q637 249 585 275 Q630 280 665.5 279.5 Q701 279 721 273 Q746 265 750.5 257.5 Q755 250 754 249 Z " />
<glyph glyph-name="e044" unicode="&#xe044;" horiz-adv-x="840" d="M753 572 L753 73 Q753 39 729.5 15 Q706 -9 673 -9 L228 -9 Q195 -9 171.5 15 Q148 39 148 73 L148 156 L0 156 L0 431 L148 431 L148 687 Q148 722 171.5 746 Q195 770 228 770 L551 770 L753 572 Z M224 200 L224 233 L127 233 L224 355 L224 386 L82 386 L82 353 L175 353 L80 233 L80 200 L224 200 Z M689 544 L528 544 L528 704 L228 704 Q221 704 216.5 699 Q212 694 212 687 L212 431 L573 431 L573 156 L212 156 L212 73 Q212 66 216.5 61 Q221 56 228 56 L673 56 Q680 56 684.5 61 Q689 66 689 73 L689 544 Z M300 200 L300 386 L261 386 L261 200 L300 200 Z M389 200 L389 267 L428 267 Q458 267 475 281 Q491 295 491 327 Q491 357 474 372 Q459 386 430 386 L350 386 L350 200 L389 200 Z M445 306 Q438 299 424 299 L389 299 L389 354 L424 354 Q437 354 445 348 Q452 342 452 327 Q452 312 445 306 Z " />
<glyph glyph-name="e045" unicode="&#xe045;" horiz-adv-x="840" d="M586 235 Q582 237 574 239 Q569 240 560 240 L527 240 L527 182 L560 182 Q564 182 567 182.5 Q570 183 574 184 Q578 184 586 188 Q591 191 594 196 Q597 202 597 211 Q597 220 594 226 Q591 231 586 235 Z M634 189 Q632 179 623 169 Q613 159 602 155 Q589 150 571 150 L527 150 L527 81 L485 81 L485 273 L571 273 Q590 273 602 267 Q612 263 623 254 Q631 244 634 234 Q636 229 637 223 Q638 217 638 211 Q638 205 637 199.5 Q636 194 634 189 Z M467 355 L372 355 L372 501 L347 501 L347 538 L410 538 L410 572 L347 572 L347 609 L410 609 L410 642 L347 642 L347 678 L410 678 L410 713 L347 713 L347 749 L434 749 L434 714 L496 714 L496 677 L434 677 L434 643 L496 643 L496 607 L434 607 L434 573 L496 573 L496 537 L434 537 L434 503 L467 503 L467 355 Z M428 81 L386 81 L386 273 L428 273 L428 81 Z M341 81 L180 81 L180 114 L282 237 L188 237 L188 273 L338 273 L338 239 L236 117 L341 117 L341 81 Z M39 749 L39 -11 L800 -11 L800 749 L39 749 Z M396 377 L443 377 L443 437 L396 437 L396 377 Z " />
<glyph glyph-name="e046" unicode="&#xe046;" horiz-adv-x="840" d="M754 570 L754 70 Q754 36 731 12 Q708 -12 675 -12 L229 -12 Q196 -12 172.5 12 Q149 36 149 70 L149 153 L1 153 L1 429 L149 429 L149 685 Q149 719 172.5 743 Q196 767 229 767 L552 767 L754 570 Z M167 232 Q182 257 182 295 Q182 303 181 310.5 Q180 318 178 326 Q175 340 165 356 Q153 372 133 380 Q127 382 120 383 Q113 384 104 384 L24 384 L24 197 L104 197 Q146 197 167 232 Z M691 541 L530 541 L530 701 L229 701 Q213 701 213 685 L213 429 L575 429 L575 153 L213 153 L213 70 Q213 54 229 54 L675 54 Q691 54 691 70 L691 541 Z M197 291 Q197 241 226 214 Q248 192 287 192 Q324 192 348 214 Q376 242 376 291 Q376 340 348 368 Q325 389 287 389 Q247 389 226 368 Q197 341 197 291 Z M444 241 Q431 257 431 288 Q431 319 443 337 Q455 354 476 354 Q496 354 507 342 Q513 334 516 321 L555 321 Q555 339 543 356 Q521 387 474 387 Q440 387 417 364 Q391 336 391 289 Q391 244 414 218 Q437 192 477 192 Q510 192 529 211 Q551 231 555 261 L516 261 Q514 253 511.5 248 Q509 243 507 239 Q497 226 476 226 Q456 226 444 241 Z M97 351 Q124 351 133 336 Q142 321 142 292 Q142 272 136 257 Q125 229 97 229 L62 229 L62 351 L97 351 L97 351 Z M287 225 Q264 225 250 242 Q236 259 236 291 Q236 322 250 339 Q263 356 287 356 Q310 356 324 339 Q337 323 337 291 Q337 258 324 242 Q309 225 287 225 Z " />
<glyph glyph-name="e047" unicode="&#xe047;" horiz-adv-x="840" d="M753 571 L753 72 Q753 37 730 13 Q707 -11 674 -11 L228 -11 Q195 -11 171.5 13 Q148 37 148 72 L148 154 L0 154 L0 430 L148 430 L148 686 Q148 720 171.5 744 Q195 768 228 768 L551 768 L753 571 Z M207 199 L146 295 L203 385 L158 385 L124 324 L91 385 L44 385 L101 294 L41 199 L87 199 L124 262 L159 199 L207 199 Z M690 543 L529 543 L529 703 L228 703 Q221 703 216.5 698 Q212 693 212 686 L212 430 L574 430 L574 154 L212 154 L212 72 Q212 55 228 55 L674 55 Q680 55 685 59.5 Q690 64 690 72 L690 543 Z M271 232 L271 385 L232 385 L232 199 L364 199 L364 232 L271 232 Z M493 265 Q501 259 501 250 Q501 235 484 229 Q475 226 461 226 Q438 226 428 237 Q422 244 421 256 L384 256 Q384 228 405 210 Q425 194 463 194 Q501 194 519 211 Q539 228 539 253 Q539 277 522 291 Q513 298 490 305 L457 312 Q440 316 432 320 Q423 326 423 335 Q423 346 432 352 Q441 358 457 358 Q472 358 480 354 Q493 346 495 330 L533 330 Q531 360 511 375 Q500 383 487.5 387 Q475 391 460 391 Q425 391 405 374 Q387 357 387 332 Q387 305 406 292 Q417 284 447 278 L467 273 Q476 271 482 269 Q488 267 493 265 Z " />
<glyph glyph-name="e048" unicode="&#xe048;" horiz-adv-x="840" d="M754 572 L754 72 Q754 38 731 14 Q708 -10 675 -10 L229 -10 Q196 -10 172.5 14 Q149 38 149 72 L149 155 L1 155 L1 431 L149 431 L149 687 Q149 721 172.5 745 Q196 769 229 769 L552 769 L754 572 Z M177 280 Q194 294 194 327 Q194 357 177 372 Q160 386 133 386 L53 386 L53 200 L92 200 L92 267 L131 267 Q163 267 177 280 Z M691 544 L530 544 L530 703 L229 703 Q213 703 213 687 L213 431 L575 431 L575 155 L213 155 L213 72 Q213 56 229 56 L675 56 Q691 56 691 72 L691 544 Z M262 200 L262 267 L301 267 Q332 267 348 280 Q364 293 364 327 Q364 357 348 372 Q331 386 303 386 L223 386 L223 200 L262 200 Z M433 353 L433 200 L472 200 L472 353 L528 353 L528 386 L377 386 L377 353 L433 353 Z M127 354 Q141 354 148 347 Q155 341 155 327 Q155 312 148 305 Q140 299 127 299 L92 299 L92 354 L127 354 L127 354 Z M318 305 Q310 299 297 299 L262 299 L262 354 L297 354 Q311 354 318 347 Q325 341 325 327 Q325 312 318 305 Z " />
<glyph glyph-name="e049" unicode="&#xe049;" horiz-adv-x="840" d="M459 750 L459 -10 L0 70 L0 674 L459 750 Z M367 507 L315 503 L283 306 L242 496 L193 496 L156 315 L128 491 L84 491 L130 242 L179 241 L215 416 L257 235 L308 235 L367 507 Z M784 663 Q793 663 793 653 L793 88 Q793 78 784 78 L474 78 L474 155 L720 155 L720 188 L474 188 L474 235 L720 235 L720 267 L474 267 L474 315 L720 315 L720 347 L474 347 L474 395 L720 395 L720 427 L474 427 L474 475 L720 475 L720 507 L474 507 L474 554 L720 554 L720 587 L474 587 L474 663 L784 663 L784 663 Z " />
<glyph glyph-name="e04a" unicode="&#xe04a;" horiz-adv-x="840" d="M456 743 L456 -10 L1 69 L1 667 L456 743 Z M329 240 L261 380 L324 513 L271 510 L233 413 L196 501 L144 501 L199 375 L144 251 L191 247 L228 338 L268 240 L329 240 Z M792 110 Q793 102 790 97 Q788 92 782.5 88.5 Q777 85 766 85 L472 85 L472 134 L584 134 L584 212 L472 212 L472 236 L584 236 L584 313 L472 313 L472 337 L584 337 L584 415 L472 415 L472 438 L584 438 L584 516 L472 516 L472 540 L584 540 L584 617 L472 617 L472 658 L767 658 Q774 659 779 655 Q784 652 788 645.5 Q792 639 792 626 L792 110 L792 110 Z M739 208 L610 208 L610 130 L739 130 L739 208 Z M739 311 L610 311 L610 233 L739 233 L739 311 Z M739 413 L610 413 L610 336 L739 336 L739 413 Z M739 516 L610 516 L610 438 L739 438 L739 516 Z M739 619 L610 619 L610 541 L739 541 L739 619 Z " />
<glyph glyph-name="e04b" unicode="&#xe04b;" horiz-adv-x="840" d="M739 159 Q740 153 738 149 Q734 140 718 140 L476 140 L476 184 L654 184 L654 217 L476 217 L476 252 L654 252 L654 286 L476 286 L476 322 Q492 316 510 316 Q551 316 579.5 344.5 Q608 373 608 414 L510 414 L510 513 Q501 513 492.5 511 Q484 509 476 507 L476 558 L719 558 Q725 558 729 555 Q733 553 736 548 Q739 543 739 534 L739 159 L739 159 Z M623 432 Q623 473 594.5 501.5 Q566 530 525 530 L525 432 L623 432 Z M209 454 Q231 458 242 452 Q253 446 258 438 Q263 428 264 414 Q263 396 255 387.5 Q247 379 236 376 Q224 372 209 374 L209 454 L209 454 Z M462 752 L462 -10 L2 70 L2 675 L462 752 Z M208 332 Q237 329 261 337 Q271 340 280.5 346.5 Q290 353 297.5 363.5 Q305 374 309.5 388.5 Q314 403 314 424 Q314 444 307 461 Q301 475 288 486.5 Q275 498 251 498 L168 498 L168 247 L208 247 L208 332 L208 332 Z M476 613 L770 613 Q777 613 781.5 610 Q786 607 788 603 Q791 599 792 594 L792 247 Q792 239 790.5 235.5 Q789 232 787 230 Q785 228 783 228 L764 228 L764 574 L476 574 L476 613 Z " />
<glyph glyph-name="e04c" unicode="&#xe04c;" horiz-adv-x="1000" d="" />
<glyph glyph-name="e04d" unicode="&#xe04d;" horiz-adv-x="1000" d="" />
<glyph glyph-name="e04e" unicode="&#xe04e;" horiz-adv-x="1000" d="" />
<glyph glyph-name="e04f" unicode="&#xe04f;" horiz-adv-x="826" d="M490 218 L490 300 L786 298 L787 392 L490 394 L490 347 L490 474 L281 346 L490 218 Z M573 183 L641 183 L641 84 Q641 49 616.5 24.5 Q592 0 557 0 L84 0 Q49 0 24.5 24.5 Q0 49 0 84 L0 512 L273 800 L557 800 Q592 800 616.5 775.5 Q641 751 641 716 L641 502 L573 502 L573 716 Q573 723 568.5 728 Q564 733 557 733 L277 733 L272 585 Q271 561 259 543 Q248 527 225 514 Q202 501 159 500 L67 498 L67 84 Q67 77 72 72 Q77 67 84 67 L557 67 Q564 67 568.5 72 Q573 77 573 84 L573 183 Z " />
<glyph glyph-name="e050" unicode="&#xe050;" horiz-adv-x="826" d="M578 220 L578 302 L281 300 L281 394 L577 396 L578 349 L578 476 L787 348 L578 220 Z M573 183 L641 183 L641 84 Q641 49 616.5 24.5 Q592 0 557 0 L84 0 Q49 0 24.5 24.5 Q0 49 0 84 L0 512 L273 800 L557 800 Q592 800 616.5 775.5 Q641 751 641 716 L641 502 L573 502 L573 716 Q573 723 568.5 728 Q564 733 557 733 L277 733 L272 585 Q271 561 259 543 Q248 527 225 514 Q202 501 159 500 L67 498 L67 84 Q67 77 72 72 Q77 67 84 67 L557 67 Q564 67 568.5 72 Q573 77 573 84 L573 183 Z " />
<glyph glyph-name="e051" unicode="&#xe051;" horiz-adv-x="726" d="M577 417 L380 529 L349 474 L546 362 L577 417 Z M571 280 L541 335 L350 229 L380 174 L571 280 Z M445 499 Q445 532 421.5 555.5 Q398 579 365 579 Q332 579 308.5 555.5 Q285 532 285 499 Q285 466 308.5 442.5 Q332 419 365 419 Q398 419 421.5 442.5 Q445 466 445 499 Z M445 202 Q445 235 421.5 258.5 Q398 282 365 282 Q332 282 308.5 258.5 Q285 235 285 202 Q285 168 308.5 144.5 Q332 121 365 121 Q398 121 421.5 144.5 Q445 168 445 202 Z M604 262 Q640 262 666 287.5 Q692 313 692 349 Q692 367 685 383 Q678 399 666 411 Q654 423 638 430 Q622 437 604 437 Q568 437 542.5 411 Q517 385 517 349 Q517 313 542.5 287.5 Q568 262 604 262 Z M604 390 Q621 390 633 378 Q645 366 645 349 Q645 332 633 320.5 Q621 309 604 309 Q587 309 575.5 320.5 Q564 332 564 349 Q564 366 575.5 378 Q587 390 604 390 Z M573 183 L641 183 L641 84 Q641 49 616.5 24.5 Q592 0 557 0 L84 0 Q49 0 24.5 24.5 Q0 49 0 84 L0 512 L273 800 L557 800 Q592 800 616.5 775.5 Q641 751 641 716 L641 502 L573 502 L573 716 Q573 723 568.5 728 Q564 733 557 733 L277 733 L272 585 Q271 561 259 543 Q248 527 225 514 Q202 501 159 500 L67 498 L67 84 Q67 77 72 72 Q77 67 84 67 L557 67 Q564 67 568.5 72 Q573 77 573 84 L573 183 Z " />
<glyph glyph-name="e052" unicode="&#xe052;" horiz-adv-x="775" d="M417 399 Q417 400 419 405.5 Q421 411 424 418 Q427 425 429.5 431.5 Q432 438 433 441 Q451 441 476 441 Q501 441 519 442 Q532 442 536 445 Q538 447 540.5 453.5 Q543 460 545.5 466.5 Q548 473 549.5 479 Q551 485 551 485 Q551 487 545 487 Q543 487 541 483 Q537 479 514 478 L434 478 Q431 478 429.5 477.5 Q428 477 426 472 Q424 466 419 449.5 Q414 433 408.5 416 Q403 399 399 384.5 Q395 370 395 369 Q395 365 397 364 Q399 363 405 361 Q429 351 448 342.5 Q467 334 480 324.5 Q493 315 500 302.5 Q507 290 507 272 Q507 244 491.5 227 Q476 210 450 210 Q446 210 438.5 211 Q431 212 422.5 215.5 Q414 219 406.5 226 Q399 233 395 245 Q393 249 391.5 252 Q390 255 384 255 Q380 255 372 250.5 Q364 246 364 237 Q364 224 380.5 207.5 Q397 191 432 191 Q454 191 473.5 198.5 Q493 206 508 218.5 Q523 231 532 248.5 Q541 266 541 286 Q541 308 530.5 325.5 Q520 343 506 354 Q492 363 472.5 371.5 Q453 380 434 387 Q417 394 417 399 Z M313 488 Q297 488 268 480.5 Q239 473 211 452.5 Q183 432 162.5 396 Q142 360 142 303 Q142 271 150.5 249.5 Q159 228 172 215 Q185 202 201 196.5 Q217 191 233 191 Q248 191 264.5 196 Q281 201 294.5 212.5 Q308 224 316.5 241.5 Q325 259 325 283 Q325 317 307 343 Q289 369 256 369 Q235 369 219 360 Q203 351 198 344 Q195 339 195 333 Q195 329 197 329 Q198 329 202 333 Q210 341 219.5 343.5 Q229 346 234 346 Q258 346 272.5 325 Q287 304 287 271 Q287 238 272 222.5 Q257 207 239 207 Q218 207 199.5 229 Q181 251 181 307 Q181 356 195.5 388 Q210 420 229 438 Q248 456 266.5 463 Q285 470 292 470 Q300 470 307 467.5 Q314 465 319 465 Q327 465 327 472 Q327 477 324 483 Q323 485 321 486.5 Q319 488 313 488 Z M676 313 L676 376 L642 376 L642 313 L580 313 L580 280 L642 280 L642 217 L676 217 L676 280 L738 280 L738 313 L676 313 Z M573 183 L641 183 L641 84 Q641 49 616.5 24.5 Q592 0 557 0 L84 0 Q49 0 24.5 24.5 Q0 49 0 84 L0 512 L273 800 L557 800 Q592 800 616.5 775.5 Q641 751 641 716 L641 502 L573 502 L573 716 Q573 723 568.5 728 Q564 733 557 733 L277 733 L272 585 Q271 561 259 543 Q248 527 225 514 Q202 501 159 500 L67 498 L67 84 Q67 77 72 72 Q77 67 84 67 L557 67 Q564 67 568.5 72 Q573 77 573 84 L573 183 Z " />
<glyph glyph-name="e053" unicode="&#xe053;" horiz-adv-x="839" d="M341 245 L450 136 L631 327 L683 268 L799 561 L503 443 L560 388 L447 270 L341 379 L186 219 L186 87 L341 245 Z M574 191 L641 259 L641 84 Q641 49 616.5 24.5 Q592 0 557 0 L84 0 Q49 0 24.5 24.5 Q0 49 0 84 L0 512 L273 800 L557 800 Q592 800 616.5 775.5 Q641 751 641 716 L641 545 L579 525 L574 716 Q573 723 568.5 728 Q564 733 557 733 L277 733 L272 585 Q271 561 259 543 Q248 527 225 514 Q202 501 159 500 L67 498 L67 84 Q67 77 72 72 Q77 67 84 67 L557 67 Q564 67 569 72 Q574 77 574 84 L574 191 Z " />
<glyph glyph-name="e054" unicode="&#xe054;" horiz-adv-x="760" d="M584 388 Q584 389 582 391 Q575 399 568.5 406 Q562 413 554 421 Q553 422 553 425 Q551 554 553 684 Q553 692 544 699 Q542 700 536 700 L437 700 L290 700 L286 700 Q285 694 285 688 Q285 682 285 676 Q283 649 283 622 Q283 595 281 569 Q278 536 252 513 Q243 505 233.5 500 Q224 495 212 493 Q206 492 200 491.5 Q194 491 188 491 Q173 491 157.5 491 Q142 491 127 492 L99 492 L99 488 L99 119 Q99 115 101 109 Q104 102 112 102 Q115 101 120 101 L536 101 L541 101 Q549 101 551.5 106 Q554 111 554 116 L554 203 Q554 204 556 208 Q563 214 569.5 220.5 Q576 227 583 234 Q583 234 585 236 Q592 229 598.5 222 Q605 215 613 208 L613 205 Q614 160 613 115 Q613 88 594 66 Q572 43 543 40 L530 40 L116 40 Q77 40 52 70 Q41 84 39 105 Q38 110 38 120 L38 498 Q38 501 41 504 Q48 511 54.5 517.5 Q61 524 67 532 Q79 546 92 559 Q105 572 117 586 Q130 600 142.5 613.5 Q155 627 168 641 Q177 650 185 659 Q193 668 202 676 Q223 696 241 717 Q259 738 279 758 Q281 760 283 760 L535 760 Q564 760 586 740 Q608 720 611 694 Q612 691 612 684 L612 424 Q612 422 610 418 L586 391 Q586 392 584 388 Z M622 313 Q629 306 635.5 300 Q642 294 650 287 Q668 270 686.5 253 Q705 236 724 219 Q726 217 726 215 L726 139 L726 137 Q690 172 654.5 207.5 Q619 243 583 278 Q547 243 511.5 207.5 Q476 172 440 137 L440 139 L440 215 Q440 217 442 219 Q467 242 491 264 Q515 286 540 309 L545 314 Q544 314 543.5 314.5 Q543 315 542 315 Q517 338 492 361.5 Q467 385 442 408 Q440 410 440 411 L440 489 L440 490 Q476 455 511.5 419.5 Q547 384 583 349 Q619 384 654.5 419 Q690 454 726 490 L726 486 L726 412 Q726 410 724 408 Q699 385 675 362.5 Q651 340 626 317 Q625 316 624 315.5 Q623 315 622 313 Z " />
<glyph glyph-name="e055" unicode="&#xe055;" horiz-adv-x="653" d="M331 247 L361 163 L528 247 L477 178 L365 104 L286 210 L316 311 L342 346 L331 247 Z M444 800 Q481 800 507 774 Q533 748 533 711 L533 593 L533 563 L533 485 L474 533 L474 563 L474 593 L474 711 Q474 723 465.5 732 Q457 741 444 741 L237 741 L237 800 L444 800 L444 800 Z M474 200 L533 252 L533 119 L474 119 L474 200 Z M17 373 L0 385 L59 385 L126 385 L183 467 L272 435 L341 488 L286 370 L193 417 L147 347 L59 364 L17 373 Z M17 254 L0 267 L35 266 L123 264 L183 348 L277 309 L343 347 L264 237 L193 296 L146 212 L59 246 L17 254 Z M533 119 L533 89 Q533 52 507 26 Q481 0 444 0 L89 0 Q52 0 26 26 Q0 52 0 89 L0 267 L17 254 L59 246 L59 89 Q59 77 68 68 Q77 59 89 59 L444 59 Q457 59 465.5 68 Q474 77 474 89 L474 119 L533 119 Z M59 385 L0 385 L0 533 L59 533 L59 385 Z M622 432 L540 357 L622 283 L622 211 L503 321 L385 211 L385 284 L467 357 L385 430 L385 504 L503 394 L622 504 L622 432 Z M59 533 L0 533 L59 600 L184 741 L237 800 L237 741 L237 607 Q237 582 227.5 567.5 Q218 553 207 545 Q194 536 178 533 L59 533 Z " />
<glyph glyph-name="e056" unicode="&#xe056;" horiz-adv-x="840" d="M282 181 L493 492 L493 388 L291 91 L169 216 L169 296 L282 181 Z M621 688 L621 -10 L607 -10 L558 -10 L41 -10 L41 688 L185 688 L185 712 L252 712 Q252 743 275 765 Q298 787 331 787 Q364 787 387 765 Q410 743 410 712 L477 712 L477 688 L621 688 Z M331 753 Q313 753 300.5 741 Q288 729 288 712 Q288 695 300.5 682.5 Q313 670 331 670 Q349 670 362 682.5 Q375 695 375 712 Q375 729 362 741 Q349 753 331 753 Z M558 52 L558 608 L477 608 L477 528 L185 528 L185 608 L105 608 L105 52 L558 52 Z " />
<glyph glyph-name="e057" unicode="&#xe057;" horiz-adv-x="928" d="M798 -179 Q799 -182 796.5 -185 Q794 -188 791 -186 L698 -145 Q692 -141 690 -148 L652 -240 Q650 -244 647 -244 Q644 -244 642 -240 L565 -55 L565 -52 Q563 -53 562 -52.5 Q561 -52 559 -52 L482 -238 Q480 -241 477 -241 Q474 -241 473 -238 L435 -146 Q432 -140 426 -142 L333 -183 Q330 -185 327.5 -182.5 Q325 -180 327 -177 L397 -9 L406 12 L405 12 Q400 12 396.5 16 Q393 20 393 25 L393 49 L393 59 Q393 65 387 68 L355 80 Q344 85 348 96 L363 134 Q365 141 360 144 L332 173 Q323 182 332 190 L356 215 Q362 219 358 225 L344 256 Q339 268 350 273 L387 289 Q393 292 393 298 L393 339 Q393 344 396.5 347.5 Q400 351 405 351 L440 351 Q446 351 448 357 L461 389 Q463 394 467.5 396 Q472 398 477 396 L515 381 Q520 379 525 384 L534 392 L554 412 Q562 421 571 412 L592 391 L596 388 Q599 384 606 386 L637 400 Q649 405 654 394 L670 357 Q673 351 679 351 L719 351 Q724 351 728 347.5 Q732 344 732 339 L732 304 Q732 297 738 296 L770 283 Q775 281 777 276.5 Q779 272 777 267 L762 229 Q760 224 764 219 L793 190 Q802 182 793 173 L769 148 Q764 144 767 138 L781 107 Q783 102 781 97 Q779 92 774 90 L737 74 Q732 71 732 65 L732 25 Q732 12 719 12 L718 12 L798 -179 L798 -179 Z M584 31 Q612 35 635.5 48.5 Q659 62 676.5 82 Q694 102 704 127.5 Q714 153 714 182 Q714 209 705 234 Q696 259 679.5 278.5 Q663 298 640.5 312 Q618 326 592 331 Q578 334 562 334 Q547 334 534 331 Q508 326 485 312.5 Q462 299 445.5 279.5 Q429 260 419.5 235 Q410 210 410 182 Q410 139 431.5 104 Q453 69 488 49 Q523 30 562 30 Q568 30 573.5 30 Q579 30 584 31 Z M353 -9 L110 -9 Q80 -9 58.5 12.5 Q37 34 37 64 L37 434 L66 465 L66 466 L218 625 L217 625 L177 582 L219 627 L220 627 L221 628 L273 683 L519 683 Q549 683 570.5 661.5 Q592 640 592 610 L592 435 L571 456 Q562 463 554 456 L534 436 L534 610 Q534 616 529.5 620.5 Q525 625 519 625 L277 625 L273 497 Q270 476 259 459 Q249 445 229.5 433.5 Q210 422 175 423 L96 426 L96 64 Q96 58 100 53.5 Q104 49 110 49 L350 49 L350 25 Q350 12 362 12 L353 -9 Z " />
<glyph glyph-name="e058" unicode="&#xe058;" horiz-adv-x="840" d="M524 690 Q554 690 575.5 668.5 Q597 647 597 616 L597 64 Q597 33 575.5 11.5 Q554 -10 524 -10 L111 -10 Q80 -10 58.5 11.5 Q37 33 37 64 L37 438 L66 469 L66 470 L219 631 L178 587 L221 633 L223 634 L275 690 L524 690 L524 690 Z M538 616 Q538 622 534 626.5 Q530 631 524 631 L279 631 L275 502 Q272 480 261 463 Q251 449 231 437 Q211 425 176 427 L96 429 L96 64 Q96 49 111 49 L524 49 Q538 49 538 64 L538 616 Z " />
<glyph glyph-name="e059" unicode="&#xe059;" horiz-adv-x="840" d="M670 543 Q700 543 721.5 521.5 Q743 500 743 469 L743 -82 Q743 -112 721.5 -133.5 Q700 -155 670 -155 L258 -155 Q227 -155 205.5 -133.5 Q184 -112 184 -82 L184 -10 L112 -10 Q82 -10 60.5 11.5 Q39 33 39 64 L39 437 L68 468 L68 469 L220 629 L179 586 L222 631 L223 631 L224 633 L276 688 L524 688 Q555 688 576.5 666.5 Q598 645 598 614 L598 543 L670 543 L670 543 Z M524 49 Q530 49 534.5 53.5 Q539 58 539 64 L539 614 Q539 621 534.5 625 Q530 629 524 629 L280 629 L276 501 Q273 480 262 463 Q252 449 232.5 437 Q213 425 178 426 L97 428 L97 64 Q97 58 101.5 53.5 Q106 49 112 49 L524 49 Z M684 469 Q684 475 680 479.5 Q676 484 670 484 L598 484 L598 64 Q598 33 576.5 11.5 Q555 -10 524 -10 L243 -10 L243 -82 Q243 -96 258 -96 L670 -96 Q684 -96 684 -82 L684 469 Z " />
<glyph glyph-name="e05a" unicode="&#xe05a;" horiz-adv-x="840" d="M540 359 L455 412 L493 320 L394 306 L482 260 L415 186 L513 207 L509 107 L571 186 L632 107 L629 207 L726 186 L659 260 L748 306 L649 320 L686 412 L602 359 L571 454 L540 359 Z M571 107 L601 68 L601 64 Q601 33 579.5 11.5 Q558 -10 527 -10 L112 -10 Q81 -10 59.5 11.5 Q38 33 38 64 L38 439 L67 469 L67 470 L221 631 L180 588 L223 633 L225 635 L278 690 L527 690 Q558 690 579.5 668.5 Q601 647 601 616 L601 474 L571 568 L542 480 L542 616 Q542 622 537.5 626.5 Q533 631 527 631 L281 631 L277 502 Q274 481 263 464 Q253 450 233 438 Q213 426 178 428 L97 430 L97 64 Q97 58 101.5 53.5 Q106 49 112 49 L527 49 Q533 49 537.5 53.5 Q542 58 542 64 L542 70 L571 107 Z " />
<glyph glyph-name="e05b" unicode="&#xe05b;" horiz-adv-x="840" d="M606 325 L714 325 L714 249 L606 249 L606 141 L530 141 L530 249 L421 249 L421 325 L530 325 L530 434 L606 434 L606 325 Z M539 89 L598 89 L598 65 Q598 34 576.5 12.5 Q555 -9 524 -9 L111 -9 Q80 -9 58.5 12.5 Q37 34 37 65 L37 439 L276 691 L524 691 Q555 691 576.5 669.5 Q598 648 598 617 L598 492 L539 492 L539 617 Q539 623 534.5 627.5 Q530 632 524 632 L280 632 L276 503 Q275 482 264 466 Q255 452 235 440.5 Q215 429 177 428 L96 427 L96 65 Q96 59 100.5 54.5 Q105 50 111 50 L524 50 Q530 50 534.5 54.5 Q539 59 539 65 L539 89 Z " />
<glyph glyph-name="e05c" unicode="&#xe05c;" horiz-adv-x="840" d="M716 325 L716 249 L423 249 L423 325 L716 325 Z M541 151 L600 151 L600 65 Q600 34 578.5 12.5 Q557 -9 526 -9 L113 -9 Q82 -9 60.5 12.5 Q39 34 39 65 L39 439 L277 690 L526 690 Q557 690 578.5 668.5 Q600 647 600 617 L600 430 L541 430 L541 617 Q541 623 536.5 627 Q532 631 526 631 L281 631 L277 503 Q276 482 265 466 Q256 452 236 440.5 Q216 429 178 428 L98 426 L98 65 Q98 58 102.5 54 Q107 50 113 50 L526 50 Q532 50 536.5 54 Q541 58 541 65 L541 151 Z " />
<glyph glyph-name="e05d" unicode="&#xe05d;" horiz-adv-x="840" d="M599 307 L471 184 L471 430 L599 307 Z M600 123 L600 64 Q600 33 578.5 11.5 Q557 -10 526 -10 L113 -10 Q82 -10 60.5 11.5 Q39 33 39 64 L39 438 L277 689 L526 689 Q557 689 578.5 667.5 Q600 646 600 616 L600 495 L541 550 L541 616 Q541 622 536.5 626 Q532 630 526 630 L281 630 L277 502 Q276 481 265 465 Q256 451 236 439.5 Q216 428 178 427 L98 426 L98 64 Q98 57 102.5 53 Q107 49 113 49 L526 49 Q532 49 536.5 53 Q541 57 541 64 L541 68 L600 123 Z M721 307 L539 138 L539 200 L651 307 L539 415 L539 476 L721 307 Z " />
<glyph glyph-name="e05e" unicode="&#xe05e;" horiz-adv-x="840" d="M539 114 Q550 101 563 94 Q576 87 586 85 Q590 83 593 83 Q596 83 598 82 L598 63 Q598 32 576.5 10.5 Q555 -11 524 -11 L111 -11 Q81 -11 59.5 10.5 Q38 32 38 63 L38 437 L276 689 L524 689 Q555 689 576.5 667.5 Q598 646 598 615 L598 550 Q598 545 591 537.5 Q584 530 574.5 521.5 Q565 513 555 505.5 Q545 498 539 493 L539 615 Q539 621 534.5 625.5 Q530 630 524 630 L280 630 L276 501 Q275 480 264 464 Q255 450 235 438.5 Q215 427 177 426 L97 425 L97 63 Q97 57 101 52.5 Q105 48 111 48 L524 48 Q530 48 534.5 52.5 Q539 57 539 63 L539 114 L539 114 Z M754 299 L771 299 L771 284 L754 284 L754 266 L738 266 L738 284 L720 284 L720 299 L738 299 L738 317 L754 317 L754 299 Z M786 328 Q787 318 787.5 308.5 Q788 299 786 291 Q785 278 782.5 268 Q780 258 778 253 Q778 251 777 251 Q777 250 776 251 L775 251 L731 251 Q670 253 634.5 242.5 Q599 232 583 215 Q562 194 570 169 Q572 163 574 159 Q576 155 578 151 Q579 149 582 146 L587 141 Q587 140 588 140 L589 139 L587 139 L582 139 Q575 139 571 141 Q557 145 539.5 157.5 Q522 170 516 196 Q511 219 517 237.5 Q523 256 538 271 Q554 286 578.5 297.5 Q603 309 631.5 316 Q660 323 690.5 327 Q721 331 749 331 Q759 331 767.5 331 Q776 331 784 330 L785 330 Q786 329 786 328 Z M771 299 L754 299 L754 317 L738 317 L738 299 L720 299 L720 284 L738 284 L738 266 L754 266 L754 284 L771 284 L771 299 Z M654 337 Q628 334 600 327.5 Q572 321 545 308 Q525 298 512 288 Q499 278 491.5 268 Q484 258 480 250 Q476 242 474 236 Q472 230 471 225.5 Q470 221 469 219 L469 218 Q469 218 468 219 Q466 222 463.5 225 Q461 228 459 233 Q455 241 452.5 248.5 Q450 256 452 261 Q460 292 478.5 313 Q497 334 523 351 Q571 383 644 397 Q690 406 727 406 Q737 406 744.5 405.5 Q752 405 755 405 L756 405 Q757 405 757 404.5 Q757 404 758 404 L759 403 Q761 401 763 397.5 Q765 394 766 391 Q779 368 784 342 L784 341 Q784 341 782 341 Q760 343 728 342.5 Q696 342 654 337 Z M477 334 Q459 316 452 293 L450 285 L449 284 L447 277 L447 276 Q446 280 444 290 L444 293 L444 300 Q444 305 444 309 Q444 313 445 318 Q448 338 457 353 Q462 362 469.5 371 Q477 380 482 386 Q495 399 512 413 L516 417 L522 421 Q532 429 547.5 443.5 Q563 458 567 472 L568 473 L569 473 Q575 475 583 476.5 Q591 478 599 479 Q609 480 619.5 480 Q630 480 637 478 L638 478 L637 474 Q633 466 626 452.5 Q619 439 602 424 Q589 413 576 404.5 Q563 396 549 388 Q531 377 512.5 365.5 Q494 354 477 334 Z " />
<glyph glyph-name="e05f" unicode="&#xe05f;" horiz-adv-x="840" d="M526 690 Q556 690 577.5 666.5 Q599 643 599 603 L599 75 Q599 37 577.5 14 Q556 -9 526 -9 L113 -9 Q82 -9 60.5 13 Q39 35 39 67 L39 350 L39 437 L98 500 L277 689 L278 689 L278 522 L277 501 Q274 480 263 463 Q253 449 233 437 Q213 425 178 426 L98 428 L98 217 L98 215 L98 199 L98 67 Q98 51 113 51 L526 51 Q540 51 540 67 L540 199 L540 210 L540 216 L540 217 L540 614 Q540 629 526 629 L395 629 Q389 629 384.5 625 Q380 621 380 614 L380 320 L506 320 L350 157 L195 320 L321 320 L321 614 Q321 646 342.5 668 Q364 690 395 690 L526 690 L526 690 Z " />
<glyph glyph-name="e060" unicode="&#xe060;" horiz-adv-x="991" d="M192 265 L453 265 L453 229 L192 229 L192 265 Z M453 323 L192 323 L192 358 L453 358 L453 323 Z M99 63 Q99 56 103.5 52 Q108 48 114 48 L294 48 L285 -12 L114 -12 Q83 -12 61 10 Q39 32 39 63 L39 439 L69 470 L69 471 L224 633 L223 633 L182 590 L225 635 L226 635 L227 637 L280 693 L532 693 Q563 693 584.5 671 Q606 649 606 618 L606 425 L547 364 L547 618 Q547 624 542.5 628.5 Q538 633 532 633 L284 633 L280 504 Q279 472 263.5 456 Q248 440 229 434 Q207 427 180 428 L99 431 L99 63 L99 63 Z M789 272 Q797 264 797.5 252 Q798 240 790 232 L748 191 L626 313 L668 354 Q676 362 688 362 Q700 362 708 354 L789 272 L789 272 Z M706 192 L726 172 L523 -31 L401 91 L604 294 L624 273 L441 91 L462 70 L645 253 L685 213 L502 29 L523 9 L706 192 Z M442 9 L503 -52 L431 -62 L360 -72 L370 -1 L380 70 L442 9 Z " />
<glyph glyph-name="e061" unicode="&#xe061;" horiz-adv-x="1000" d="" />
<glyph glyph-name="e062" unicode="&#xe062;" horiz-adv-x="1000" d="" />
<glyph glyph-name="e063" unicode="&#xe063;" horiz-adv-x="1000" d="" />
<glyph glyph-name="e064" unicode="&#xe064;" horiz-adv-x="1000" d="" />
<glyph glyph-name="e065" unicode="&#xe065;" horiz-adv-x="1000" d="" />
<glyph glyph-name="e066" unicode="&#xe066;" horiz-adv-x="1000" d="" />
<glyph glyph-name="e067" unicode="&#xe067;" horiz-adv-x="1000" d="" />
<glyph glyph-name="e068" unicode="&#xe068;" horiz-adv-x="1000" d="" />
<glyph glyph-name="e069" unicode="&#xe069;" horiz-adv-x="1000" d="" />
<glyph glyph-name="e06a" unicode="&#xe06a;" horiz-adv-x="980" d="M800 551 L800 520 L662 520 L662 376 L630 376 L630 520 L489 520 L489 551 L630 551 L630 690 L662 690 L662 551 L800 551 Z M308 431 Q324 447 327 465.5 Q330 484 330 496 Q330 520 322.5 549 Q315 578 301 603 Q287 628 265.5 644.5 Q244 661 216 661 Q198 661 180.5 653 Q163 645 152 631 Q141 617 136.5 599.5 Q132 582 132 565 Q132 542 139 514.5 Q146 487 160 463 Q174 439 195.5 422.5 Q217 406 246 406 Q263 406 280 413 Q297 420 308 431 Z M380 144 Q380 161 374 174.5 Q368 188 356 201.5 Q344 215 325.5 229.5 Q307 244 281 262 L260 262 Q260 262 249 261 Q238 260 223 258.5 Q208 257 192 254.5 Q176 252 165 248 Q157 245 144 239.5 Q131 234 118.5 223.5 Q106 213 96.5 196.5 Q87 180 87 156 Q87 108 130 77.5 Q173 47 247 47 Q313 47 346.5 74.5 Q380 102 380 144 Z M402 658 L346 658 Q354 652 365 641.5 Q376 631 386 616.5 Q396 602 403 582 Q410 562 410 537 Q410 512 403.5 493.5 Q397 475 386.5 460 Q376 445 362 433.5 Q348 422 334 411 Q325 402 317 392 Q309 382 309 367 Q309 352 316.5 343 Q324 334 332 329 L365 304 Q380 292 394 279.5 Q408 267 418.5 252.5 Q429 238 435 220 Q441 202 441 179 Q441 147 425.5 117 Q410 87 380 63 Q350 39 305 24.5 Q260 10 202 10 Q152 10 115.5 20.5 Q79 31 55 49 Q31 67 19 90 Q7 113 7 138 Q7 150 10.5 164 Q14 178 22 192.5 Q30 207 43.5 220.5 Q57 234 77 246 Q98 259 122 266.5 Q146 274 169.5 278.5 Q193 283 214 285 Q235 287 250 288 Q241 300 232 314 Q223 328 223 348 Q223 360 226 367.5 Q229 375 232 383 Q224 382 217 381.5 Q210 381 203 381 Q167 381 139 393 Q111 405 91.5 425 Q72 445 62 470.5 Q52 496 52 522 Q52 553 66.5 585 Q81 617 110 641 Q149 672 192.5 681 Q236 690 273 690 L460 690 L402 658 Z " />
<glyph glyph-name="e06b" unicode="&#xe06b;" horiz-adv-x="840" d="M419 417 Q437 420 452 430 Q472 444 483.5 464 Q495 484 500 517 Q501 522 501 532 Q501 542 501 553 Q501 564 501 574.5 Q501 585 500 591 Q488 691 430 722 Q411 731 387.5 731.5 Q364 732 346 722 Q299 698 289 634 Q284 605 286.5 568 Q289 531 298 504 Q302 491 309.5 477 Q317 463 325 453 Q343 430 367.5 421 Q392 412 419 417 Z M473 42 Q538 48 576 75 Q618 108 624 139 Q626 148 625 159 Q624 170 621 177 Q616 187 606.5 193.5 Q597 200 579.5 204.5 Q562 209 534.5 211 Q507 213 467 215 Q414 217 374.5 219 Q335 221 306 225 Q296 226 291 226.5 Q286 227 282.5 226 Q279 225 277 222 Q275 219 271 215 Q254 195 243.5 177.5 Q233 160 229 145 Q223 122 231 104 Q242 80 282 63 Q322 46 376 41 Q384 40 397.5 40 Q411 40 425.5 40 Q440 40 452.5 40.5 Q465 41 472 42 L473 42 Z M225 9 Q205 17 192.5 26 Q180 35 169 46 Q156 59 153.5 79.5 Q151 100 172 132 Q182 148 193.5 161.5 Q205 175 227 198 Q238 209 245.5 218.5 Q253 228 253 229 Q253 230 240 241 Q228 248 218.5 257 Q209 266 206 272 Q192 301 221 342 Q223 346 229 352.5 Q235 359 243 367 Q251 375 259.5 383 Q268 391 275 397 Q290 410 290 413 Q290 416 284 419 Q267 427 249.5 442.5 Q232 458 222 473 Q207 496 200.5 519 Q194 542 194 569 Q194 591 197.5 608.5 Q201 626 209 643 Q221 669 245 693.5 Q269 718 297 732 Q321 743 347.5 749.5 Q374 756 397 755 Q427 755 458.5 747.5 Q490 740 516 723 L522 718 L591 718 L627 718 Q641 718 652 716.5 Q663 715 664 713 Q667 706 666.5 692.5 Q666 679 664 677 Q662 676 660 675 Q658 674 650 673 Q644 673 630 672.5 Q616 672 602 672 Q579 672 572 672 Q565 672 565 670 Q565 669 569 661 Q587 636 593 602 Q595 589 595 567.5 Q595 546 593 535 Q583 485 544 448 Q522 426 495.5 414 Q469 402 434 397 Q428 396 419 395.5 Q410 395 400 394.5 Q390 394 381 394.5 Q372 395 368 396 Q355 397 347 398 Q339 399 329 402 L315 405 L308 398 Q302 392 293 382.5 Q284 373 280 367 Q276 360 273.5 351.5 Q271 343 271 337 Q271 332 274 325 Q277 318 282 315 Q288 311 295 308.5 Q302 306 312.5 304 Q323 302 339 301 Q355 300 379 299 Q424 297 452 296 Q480 295 498 294.5 Q516 294 526.5 292.5 Q537 291 547 290 Q614 281 645 235 Q655 221 658 207 Q661 193 660 172 Q660 160 659 154.5 Q658 149 656 142 Q642 95 598 55 Q554 15 495 -4 Q473 -12 450.5 -16.5 Q428 -21 402 -21 Q364 -21 315 -14.5 Q266 -8 225 9 Z " />
<glyph glyph-name="e06c" unicode="&#xe06c;" horiz-adv-x="884" d="M728 381 Q723 380 705 368 Q687 356 663 338 Q639 320 612 298 Q585 276 562 255.5 Q539 235 522.5 218 Q506 201 503 192 Q502 187 502 165 Q502 143 502.5 117.5 Q503 92 504 69 Q505 46 506 39 Q510 38 527.5 37.5 Q545 37 564.5 37 Q584 37 602 37 Q620 37 626 36 L624 -1 L424 -1 L251 -1 L258 32 Q265 33 280.5 33 Q296 33 313.5 33.5 Q331 34 346.5 37 Q362 40 368 47 Q371 50 372 70 Q373 90 373 114.5 Q373 139 372 161 Q371 183 370 190 Q368 195 354.5 214.5 Q341 234 320.5 260.5 Q300 287 275 317.5 Q250 348 226.5 376 Q203 404 183 425 Q163 446 152 455 L39 455 L39 508 L420 508 L420 504 L421 504 L420 495 L420 455 L305 455 Q324 427 346.5 397 Q369 367 390.5 339 Q412 311 430.5 287 Q449 263 461 247 L615 386 L523 386 L510 438 L845 438 L842 435 L844 435 L820 400 L819 400 L809 386 L748 386 Q742 384 737 383.5 Q732 383 728 381 Z " />
<glyph glyph-name="e06d" unicode="&#xe06d;" horiz-adv-x="840" d="M502 295 Q537 227 574 161 Q611 95 649 26 Q654 16 660 4.5 Q666 -7 662 -15 Q660 -20 653 -22 Q646 -24 637 -24 Q628 -24 617.5 -23.5 Q607 -23 598 -23 Q575 -23 555.5 -25 Q536 -27 521 -22 Q513 -19 506 -9.5 Q499 0 492.5 11.5 Q486 23 481 35 Q476 47 472 54 Q440 113 406 174.5 Q372 236 340 293 Q395 394 456.5 500.5 Q518 607 576 711 Q584 727 594 745.5 Q604 764 625 765 Q635 766 653 765 Q671 764 691 764 Q708 764 728 764.5 Q748 765 753 758 Q757 752 754.5 743.5 Q752 735 747.5 726.5 Q743 718 737.5 710 Q732 702 729 697 Q672 594 615 495 Q558 396 502 295 Z M100 213 Q97 212 92 215 Q87 218 85 222 Q83 232 88.5 239.5 Q94 247 98 254 Q123 299 144.5 338.5 Q166 378 192 423 Q195 428 201 436.5 Q207 445 208 450 Q208 456 200 468.5 Q192 481 188 488 Q177 508 166.5 525 Q156 542 145 560 Q140 568 134 577 Q128 586 131 600 Q132 605 135.5 606.5 Q139 608 144 609 L262 609 Q279 609 286 595.5 Q293 582 301 570 Q318 540 336 509.5 Q354 479 369 451 Q345 408 318.5 361.5 Q292 315 266 269 Q262 261 257.5 252 Q253 243 247.5 234.5 Q242 226 235 220 Q228 214 219 213 L100 213 Z " />
<glyph glyph-name="e06e" unicode="&#xe06e;" horiz-adv-x="840" d="M804 298 L804 -55 L398 4 L397 299 L804 298 Z M398 655 L804 715 L804 360 L398 357 L398 655 Z M340 301 L340 8 L36 51 L36 303 L340 301 Z M36 606 L340 649 L340 356 L36 354 L36 606 Z " />
<glyph glyph-name="e06f" unicode="&#xe06f;" horiz-adv-x="840" d="M605 166 Q619 166 635 160.5 Q651 155 664.5 142.5 Q678 130 687 110 Q696 90 696 61 Q696 32 683.5 15 Q671 -2 654.5 -10.5 Q638 -19 620.5 -21.5 Q603 -24 593 -24 Q583 -24 553.5 -23.5 Q524 -23 490.5 -22 Q457 -21 425.5 -20.5 Q394 -20 380 -20 Q371 -20 350 -14.5 Q329 -9 303 4 Q277 17 249 38 Q221 59 198.5 89.5 Q176 120 161 162 Q146 204 146 258 Q146 287 145.5 316 Q145 345 145 374 Q145 401 144.5 428 Q144 455 144 482 L144 513 Q144 555 143.5 598.5 Q143 642 157 682 Q167 711 189.5 724.5 Q212 738 241 738 Q277 738 297 721.5 Q317 705 327 677.5 Q337 650 340 615 Q343 580 343 544 L616 544 Q648 544 670 514 Q692 484 692 433 Q692 408 680.5 392 Q669 376 652.5 367 Q636 358 617.5 354.5 Q599 351 585 351 L339 351 Q338 320 337.5 295.5 Q337 271 337 256 Q337 240 341.5 224 Q346 208 358.5 195 Q371 182 395 174 Q419 166 458 166 L605 166 L605 166 Z " />
<glyph glyph-name="e070" unicode="&#xe070;" horiz-adv-x="840" d="M722 445 L722 425 Q722 348 693 269 Q664 190 608 126 Q552 62 469.5 22 Q387 -18 279 -18 Q213 -18 152.5 0 Q92 18 40 52 Q59 49 78 49 Q133 49 182 66.5 Q231 84 271 116 Q220 117 180 147 Q140 177 126 224 Q139 221 155 221 Q176 221 196 227 Q169 232 146.5 246 Q124 260 107 280 Q90 300 80.5 325.5 Q71 351 71 380 L71 382 Q103 364 141 362 Q110 383 91 417 Q72 451 72 492 Q72 513 77.5 533 Q83 553 93 570 Q151 499 234 455.5 Q317 412 414 407 Q412 416 411 425 Q410 434 410 443 Q410 475 422.5 503.5 Q435 532 456 553 Q477 574 505.5 586 Q534 598 566 598 Q600 598 629 585 Q658 572 680 549 Q732 559 778 587 Q770 560 752 537.5 Q734 515 710 501 Q759 507 799 525 Q784 502 764.5 482 Q745 462 722 445 Z " />
<glyph glyph-name="e071" unicode="&#xe071;" horiz-adv-x="840" d="M592 358 L486 358 L486 -21 L329 -21 L329 358 L254 358 L254 492 L329 492 L329 579 Q329 602 335.5 630 Q342 658 359.5 682 Q377 706 408 722 Q439 738 488 738 L604 737 L604 607 L520 607 Q509 607 497.5 600 Q486 593 486 571 L486 492 L606 492 L592 358 Z " />
<glyph glyph-name="e072" unicode="&#xe072;" horiz-adv-x="840" d="M455 377 L455 378 L454 377 L455 377 Z M773 -21 L618 -21 L618 228 Q618 275 600 304 Q582 333 540 333 Q508 333 488 315 Q468 297 460 276 Q457 268 456 259 Q455 250 455 239 L455 -21 L300 -21 Q301 97 301 195 Q301 237 301 278 Q301 319 301 353 Q301 387 300.5 411.5 Q300 436 300 444 L455 444 L455 378 Q463 390 474 403.5 Q485 417 501.5 428.5 Q518 440 541 447.5 Q564 455 595 455 Q633 455 665.5 442.5 Q698 430 722 404 Q746 378 759.5 339 Q773 300 773 246 L773 -21 Z M138 508 L136 508 Q98 508 74.5 531 Q51 554 51 588 Q51 623 75 646 Q99 669 139 669 Q178 669 201.5 646 Q225 623 225 588 Q226 554 202 531 Q178 508 138 508 Z M215 -21 L60 -21 L60 444 L215 444 L215 -21 Z " />
<glyph glyph-name="e073" unicode="&#xe073;" horiz-adv-x="840" d="M539 430 Q523 430 516 439 Q509 449 509 468 L509 643 L552 643 L552 482 Q552 477 554 471 Q557 468 563 468 Q568 468 575 472 Q582 476 588 484 L588 643 L631 643 L631 433 L588 433 L588 456 Q582 450 576 445 Q570 440 564 437 Q551 430 539 430 Z M411 428 Q382 428 366 444 Q349 459 349 486 L349 595 Q349 620 366 634 Q384 649 413 649 Q439 649 457 634 Q474 617 474 594 L474 485 Q474 458 457 443 Q440 428 411 428 Z M393 482 Q393 474 398 469 Q403 464 411 464 Q418 464 425 469 Q430 474 430 482 L430 597 Q430 603 425 608 Q420 612 411 612 Q402 612 398 608 Q393 603 393 597 L393 482 Z M241 546 L183 718 L232 718 L263 604 L266 604 L296 718 L346 718 L289 551 L289 433 L241 433 L241 546 Z M488 222 Q496 222 500 217 Q504 211 504 202 L504 104 Q504 94 500 91 Q497 87 490 87 Q484 87 481 89 Q476 90 472 95 L472 214 Q475 218 480 220 Q482 222 488 222 Z M619 221 Q629 221 632 216 Q636 212 636 199 L636 180 L602 180 L602 199 Q602 210 606 216 Q610 221 619 221 Z M657 367 Q685 367 710.5 356 Q736 345 754.5 326.5 Q773 308 784 282.5 Q795 257 795 229 L795 118 Q795 89 784 64 Q773 39 754.5 20.5 Q736 2 710.5 -9 Q685 -20 657 -20 L178 -20 Q149 -20 124 -9 Q99 2 80.5 20.5 Q62 39 51 64 Q40 89 40 118 L40 229 Q40 257 51 282.5 Q62 308 80.5 326.5 Q99 345 124 356 Q149 367 178 367 L657 367 L657 367 Z M279 318 L147 318 L147 280 L191 280 L191 59 L234 59 L234 280 L279 280 L279 318 Z M405 250 L366 250 L366 105 Q363 101 355 95 Q348 91 344 91 Q339 91 336 94 Q334 98 334 104 L334 250 L296 250 L296 90 Q296 74 302 65 Q309 56 322 56 Q333 56 344 62 Q355 68 366 80 L366 59 L405 59 L405 250 Z M543 205 Q543 229 533 240 Q524 252 506 252 Q496 252 488 248 Q480 243 472 235 L472 318 L433 318 L433 59 L472 59 L472 74 Q479 65 488 61 Q496 57 508 57 Q525 57 534 67 Q543 79 543 99 L543 205 Z M675 199 Q675 227 661 240 Q647 255 621 255 Q595 255 579 239 Q563 224 563 199 L563 113 Q563 85 578 70 Q593 54 618 54 Q647 54 661 69 Q675 83 675 113 L675 123 L636 123 L636 114 Q636 97 632 92 Q629 87 619 87 Q610 87 606 93 Q602 101 602 114 L602 150 L675 150 L675 199 Z " />
<glyph glyph-name="e074" unicode="&#xe074;" horiz-adv-x="840" d="M292 294 Q298 294 301.5 294 Q305 294 310 293 Q332 278 348.5 265.5 Q365 253 375.5 241.5 Q386 230 391 218 Q396 206 396 191 Q396 156 366.5 132 Q337 108 280 108 Q217 108 179.5 134 Q142 160 142 202 Q142 223 150 237 Q158 251 169 260.5 Q180 270 191.5 275 Q203 280 209 282 Q221 286 234.5 288.5 Q248 291 260 292 Q272 293 280.5 293.5 Q289 294 292 294 Z M253 639 Q278 639 296.5 624.5 Q315 610 327.5 588.5 Q340 567 346.5 542.5 Q353 518 353 497 Q353 486 350 470 Q347 454 333 440 Q323 431 308.5 425 Q294 419 279 419 Q254 419 235.5 433 Q217 447 205 468 Q193 489 187 512.5 Q181 536 181 556 Q181 571 184.5 586 Q188 601 198 613 Q208 625 223 632 Q238 639 253 639 Z M612 517 L612 393 L639 393 L639 517 L759 517 L759 544 L639 544 L639 664 L612 664 L612 544 L490 544 L490 517 L612 517 Z M422 532 Q422 554 416 571 Q410 588 401 601 Q392 614 382.5 622.5 Q373 631 366 637 L415 637 L465 664 L303 664 Q271 664 233.5 657 Q196 650 162 622 Q136 601 124 573 Q112 545 112 518 Q112 495 120.5 473.5 Q129 452 145.5 435 Q162 418 186.5 407.5 Q211 397 242 397 Q248 397 254.5 397.5 Q261 398 268 399 Q265 391 262.5 385 Q260 379 260 369 Q260 351 267.5 339 Q275 327 283 316 Q270 315 251.5 313.5 Q233 312 213 308 Q193 304 172 297.5 Q151 291 133 280 Q98 260 85 233.5 Q72 207 72 186 Q72 165 82.5 145 Q93 125 114 109.5 Q135 94 167 85 Q199 76 242 76 Q293 76 331.5 88.5 Q370 101 396 121.5 Q422 142 435.5 168.5 Q449 195 449 222 Q449 262 429 286 Q409 310 383 330 L354 352 Q347 357 340.5 364.5 Q334 372 334 385 Q334 398 341 406.5 Q348 415 356 423 Q368 432 380 442.5 Q392 453 401.5 465.5 Q411 478 416.5 494.5 Q422 511 422 532 Z M795 749 L795 -9 L37 -9 L37 749 L795 749 Z " />
<glyph glyph-name="e075" unicode="&#xe075;" horiz-adv-x="840" d="M796 747 L796 -9 L40 -9 L40 747 L796 747 Z M614 607 Q615 608 615.5 619 Q616 630 614 635 Q613 637 604.5 637.5 Q596 638 585 638 L558 638 L504 639 L499 642 Q479 656 455 661.5 Q431 667 408 667 Q391 668 370.5 663 Q350 658 331 649 Q310 639 291.5 620 Q273 601 264 581 Q258 567 255 554 Q252 541 252 524 Q252 503 257 485.5 Q262 468 274 450 Q282 439 295 427 Q308 415 321 409 Q326 406 326 404 Q326 402 314 392 Q303 383 290 369 Q277 355 273 350 Q250 317 261 296 Q263 291 270.5 284 Q278 277 287 272 Q298 264 298 263 Q298 262 292 254.5 Q286 247 277 239 Q260 221 251.5 211 Q243 201 235 188 Q219 164 221 148 Q223 132 233 122 Q248 106 276 93 Q308 80 345.5 75 Q383 70 412 70 Q432 70 449 74 Q466 78 483 83 Q529 98 563 129 Q597 160 608 195 Q610 200 610 204.5 Q610 209 611 218 Q611 235 609 246 Q607 257 599 268 Q577 302 524 310 Q516 311 507.5 311.5 Q499 312 485.5 312.5 Q472 313 450 314 Q428 315 394 317 Q375 317 363 318 Q351 319 343 320.5 Q335 322 329.5 324 Q324 326 320 329 Q317 331 314 336.5 Q311 342 311 346 Q311 357 318 369 Q321 374 328 381 Q335 388 340 393 L345 398 L356 396 Q364 394 370 393 Q376 392 386 391 Q389 390 396 390 Q403 390 410.5 390 Q418 390 425 390.5 Q432 391 436 392 Q489 399 522 431 Q552 461 559 498 Q561 506 561 522.5 Q561 539 559 549 Q554 576 541 595 Q538 599 538 602 Q538 603 543.5 603 Q549 603 566 603 Q577 603 587.5 603.5 Q598 604 603 604 Q609 605 610.5 605.5 Q612 606 614 607 Z M279 198 Q282 210 290.5 223.5 Q299 237 311 252 Q317 259 320 260.5 Q323 262 338 260 Q360 257 390.5 255.5 Q421 254 462 252 Q493 251 514 249 Q535 247 548.5 244 Q562 241 569.5 235.5 Q577 230 581 223 Q583 218 583.5 209.5 Q584 201 583 193 Q577 167 545 144 Q518 124 466 119 Q461 118 451 117.5 Q441 117 430 117 Q419 117 408.5 117.5 Q398 118 392 118 Q350 122 319.5 135 Q289 148 281 166 Q274 178 279 198 Z M433 641 Q455 630 468.5 604.5 Q482 579 487 541 Q488 536 488 528 Q488 520 488 511.5 Q488 503 488 495.5 Q488 488 487 484 Q483 458 474.5 443 Q466 428 450 417 Q440 410 425 407 Q381 399 353 435 Q347 443 341 453.5 Q335 464 332 474 Q325 495 323 523.5 Q321 552 325 574 Q332 624 369 642 Q383 649 401 649 Q419 649 433 641 Z " />
<glyph glyph-name="e076" unicode="&#xe076;" horiz-adv-x="840" d="M794 747 L794 -9 L38 -9 L38 747 L794 747 Z M744 519 L746 522 L472 522 L483 479 L557 479 L432 365 Q422 378 407 398 Q392 418 374 441 Q356 464 338 488.5 Q320 513 304 536 L398 536 L398 569 L399 576 L398 576 L398 579 L86 579 L86 536 L178 536 Q187 529 203.5 511.5 Q220 494 239.5 471 Q259 448 279 423 Q299 398 316 376.5 Q333 355 344.5 339 Q356 323 357 319 Q358 313 359 295 Q360 277 360 257 Q360 237 359 220.5 Q358 204 355 201 Q350 196 337.5 193.5 Q325 191 310.5 190.5 Q296 190 283.5 190 Q271 190 265 190 L260 160 Q270 160 290 160 Q310 160 331.5 160.5 Q353 161 373 161.5 Q393 162 403 162 Q423 162 449 162 Q475 162 499 162 Q523 162 541.5 162 Q560 162 565 162 L567 192 Q562 193 547.5 193.5 Q533 194 516.5 194 Q500 194 486 194 Q472 194 468 195 Q467 201 466.5 219.5 Q466 238 465.5 259 Q465 280 465 298 Q465 316 466 320 Q468 327 481.5 341.5 Q495 356 514 373 Q533 390 555 407.5 Q577 425 597 439.5 Q617 454 631.5 464 Q646 474 650 475 Q653 476 657 476.5 Q661 477 666 479 L717 479 L725 491 L745 519 L744 519 Z " />
<glyph glyph-name="e077" unicode="&#xe077;" horiz-adv-x="840" d="M794 747 L794 -9 L38 -9 L38 747 L794 747 Z M266 252 Q280 254 287.5 268.5 Q295 283 301 294 Q321 328 340.5 362.5 Q360 397 378 429 Q367 449 353.5 472 Q340 495 327 517 Q322 527 316 536.5 Q310 546 298 546 Q276 547 254.5 546.5 Q233 546 210 546 Q207 546 204 545 Q201 544 200 540 Q198 529 203 522.5 Q208 516 211 510 Q219 496 227 483.5 Q235 471 243 456 Q246 451 252 442 Q258 433 258 428 Q258 425 253 419 Q248 413 246 408 Q227 375 211 345.5 Q195 316 176 283 Q173 278 169 272 Q165 266 167 259 Q168 256 172 253.5 Q176 251 178 252 L266 252 L266 252 Z M645 612 Q647 616 651.5 621.5 Q656 627 659.5 633.5 Q663 640 664.5 646 Q666 652 663 657 Q660 662 644.5 662 Q629 662 617 662 Q602 662 589 662.5 Q576 663 568 663 Q552 662 545 648.5 Q538 635 531 623 Q489 545 443 466 Q397 387 356 312 Q380 269 405 223.5 Q430 178 454 133 Q457 128 461 119.5 Q465 111 469.5 102 Q474 93 479.5 86 Q485 79 491 77 Q502 73 516.5 74.5 Q531 76 548 76 Q562 76 577 75.5 Q592 75 596 83 Q599 89 594.5 97 Q590 105 586 113 Q558 164 530.5 213 Q503 262 477 313 Q519 388 561 462 Q603 536 645 612 Z " />
<glyph glyph-name="e078" unicode="&#xe078;" horiz-adv-x="840" d="M796 746 L796 -10 L40 -10 L40 746 L796 746 Z M392 382 L735 384 L735 686 L392 636 L392 382 Z M361 102 L360 352 L101 354 L102 138 L361 102 Z M361 381 L360 631 L101 596 L102 380 L361 381 Z M736 350 L391 351 L392 98 L735 50 L736 350 Z " />
<glyph glyph-name="e079" unicode="&#xe079;" horiz-adv-x="840" d="M793 745 L793 -11 L37 -11 L37 745 L793 745 Z M544 82 Q551 82 564.5 84 Q578 86 590.5 92.5 Q603 99 612.5 111.5 Q622 124 622 146 Q622 168 615 183 Q608 198 598 207 Q588 216 575.5 220 Q563 224 553 224 L444 224 Q415 224 397 230 Q379 236 369 245.5 Q359 255 356 267 Q353 279 353 291 Q353 302 353.5 320.5 Q354 339 355 362 L538 362 Q548 362 562 364.5 Q576 367 588.5 373.5 Q601 380 609.5 392 Q618 404 618 423 Q618 461 602 483.5 Q586 506 562 506 L357 506 Q357 533 355 559.5 Q353 586 345.5 606 Q338 626 323 638.5 Q308 651 282 651 Q259 651 243 641.5 Q227 632 219 609 Q209 580 209 547 Q209 514 209 483 L209 460 Q209 440 209.5 419.5 Q210 399 210 379 L210 293 Q210 253 221 221.5 Q232 190 249 167 Q266 144 287 128.5 Q308 113 327.5 103 Q347 93 362.5 89 Q378 85 385 85 Q396 85 419.5 84.5 Q443 84 468 83.5 Q493 83 514.5 82.5 Q536 82 544 82 Z " />
<glyph glyph-name="e07a" unicode="&#xe07a;" horiz-adv-x="840" d="M795 744 L795 -12 L39 -12 L39 744 L795 744 Z M587 453 Q600 462 611 473.5 Q622 485 631 498 Q619 493 606.5 489.5 Q594 486 580 484 Q608 500 619 533 Q594 518 563 512 Q538 539 499 539 Q463 539 437.5 513.5 Q412 488 412 452 Q412 447 412.5 442 Q413 437 414 432 Q359 434 312.5 458.5 Q266 483 234 523 Q222 503 222 479 Q222 456 232.5 437 Q243 418 261 406 Q240 407 221 417 L221 416 Q221 384 241 360 Q261 336 291 330 Q280 327 268 327 Q262 327 252 329 Q260 303 282.5 286 Q305 269 334 268 Q311 251 283.5 241 Q256 231 225 231 Q220 231 214.5 231 Q209 231 204 232 Q233 213 267 202.5 Q301 192 338 192 Q398 192 444.5 214.5 Q491 237 522.5 273 Q554 309 570.5 353.5 Q587 398 587 442 L587 453 L587 453 Z " />
<glyph glyph-name="e07b" unicode="&#xe07b;" horiz-adv-x="840" d="M795 -12 L39 -12 L39 744 L795 744 L795 -12 Z M516 421 L448 421 L448 465 Q448 477 454.5 481 Q461 485 467 485 L515 485 L515 558 L449 559 Q422 559 404.5 550 Q387 541 377 527.5 Q367 514 363.5 498 Q360 482 360 469 L360 421 L317 421 L317 345 L360 345 L360 132 L448 132 L448 345 L508 345 L516 421 Z " />
<glyph glyph-name="e07c" unicode="&#xe07c;" horiz-adv-x="840" d="M441 399 Q441 399 442 400 L442 399 L441 399 Z M794 -10 L38 -10 L38 746 L794 746 L794 -10 Z M299 439 L208 439 L208 164 L299 164 L299 439 Z M254 476 Q278 476 292 490 Q306 504 305 524 Q305 544 291.5 558 Q278 572 254 572 Q231 572 217 558 Q203 544 203 524 Q203 504 216.5 490 Q230 476 253 476 L254 476 L254 476 Z M629 321 Q629 385 599 415 Q569 445 524 445 Q487 445 469 429.5 Q451 414 442 400 L442 439 L350 439 L350 292 L350 164 L442 164 L442 317 Q442 324 442.5 329.5 Q443 335 445 340 Q450 352 461 362.5 Q472 373 491 373 Q517 373 527.5 356 Q538 339 538 311 L538 164 L629 164 L629 321 Z " />
<glyph glyph-name="e07d" unicode="&#xe07d;" horiz-adv-x="840" d="M578 293 Q598 293 610 281 Q621 268 621 248 L621 209 L563 209 L563 181 Q563 170 566 164 Q569 160 576 160 Q584 160 587 164 Q590 167 590 181 L590 188 L621 188 L621 180 Q621 157 609 145 Q598 133 576 133 Q555 133 543 146 Q532 159 532 180 L532 248 Q532 268 545 280 Q557 293 578 293 Z M590 248 Q590 257 587 262 Q583 266 576 266 Q569 266 566 262 Q563 257 563 248 L563 233 L590 233 L590 248 Z M795 745 L795 -11 L38 -11 L38 745 L795 745 Z M489 461 Q489 446 495 439 Q501 431 512 431 Q521 431 532 437 Q543 442 552 452 L552 434 L586 434 L586 601 L552 601 L552 474 Q548 468 541 465 Q533 461 532 461 Q526 461 525 464 Q523 466 523 473 L523 601 L489 601 L489 461 Z M362 476 Q362 456 376 442 Q388 430 411 430 Q434 430 448 442 Q461 454 461 475 L461 561 Q461 581 448 593 Q434 605 413 605 Q389 605 376 593 Q362 582 362 562 L362 476 Z M231 660 L276 523 L276 434 L315 434 L315 528 L359 660 L320 660 L297 569 L294 569 L269 660 L231 660 Z M716 272 Q716 294 707.5 314 Q699 334 684 349 Q669 364 649 372.5 Q629 381 606 381 L227 381 Q204 381 184 372.5 Q164 364 149 349 Q134 334 125.5 314 Q117 294 117 272 L117 184 Q117 161 125.5 141.5 Q134 122 149 107 Q164 92 184 83.5 Q204 75 227 75 L606 75 Q629 75 649 83.5 Q669 92 684 107 Q699 122 707.5 141.5 Q716 161 716 184 L716 272 Z M411 458 Q405 458 401 462 Q397 468 397 473 L397 564 Q397 569 401 573 Q405 576 411 576 Q417 576 422 573 Q426 569 426 564 L426 473 Q426 466 422 462 Q416 458 411 458 Z M376 289 L406 289 L406 137 L376 137 L376 154 Q366 144 358 140 Q348 135 341 135 Q331 135 325 142 Q320 150 320 162 L320 289 L350 289 L350 173 Q350 169 352 165 Q353 163 358 163 Q361 163 366 166 Q370 168 376 174 L376 289 Z M486 291 Q500 291 508 281 Q516 271 516 253 L516 169 Q516 152 509 144 Q502 136 488 136 Q479 136 472 139 Q464 143 459 149 L459 137 L429 137 L429 343 L459 343 L459 277 Q463 280 466 282.5 Q469 285 472 287 Q479 291 486 291 Z M485 251 Q485 258 482 263 Q476 267 472 267 Q470 267 466 265 Q464 264 462.5 263.5 Q461 263 459 261 L459 166 Q461 164 463 163 Q465 162 467 161 Q471 159 474 159 Q479 159 482 162 Q485 166 485 173 L485 251 Z M202 343 L306 343 L306 313 L271 313 L271 137 L237 137 L237 313 L202 313 L202 343 Z " />
<glyph glyph-name="e07e" unicode="&#xe07e;" horiz-adv-x="1000" d="" />
<glyph glyph-name="e07f" unicode="&#xe07f;" horiz-adv-x="1000" d="" />
<glyph glyph-name="e080" unicode="&#xe080;" horiz-adv-x="1094" d="M719 800 Q786 800 844.5 781 Q903 762 946.5 729.5 Q990 697 1015.5 653 Q1041 609 1041 560 Q1041 510 1015.5 466 Q990 422 946.5 389.5 Q903 357 844.5 338 Q786 319 719 319 Q705 319 692.5 320 Q680 321 667 323 L492 259 L575 346 Q560 351 549 355.5 Q538 360 529 365 Q520 370 511 376 Q502 382 491 390 Q488 372 484 360 Q480 348 477 344 Q475 361 473 366.5 Q471 372 474 378 Q451 380 432 388.5 Q413 397 390 422 Q386 421 388 410 Q389 405 392 399 Q374 402 357 410 Q343 417 329 428 Q315 439 308 459 Q303 457 302.5 451.5 Q302 446 304 440 Q306 433 309 425 Q289 432 272 443 Q258 453 246 469.5 Q234 486 235 512 Q226 490 206 470 Q186 450 167 430.5 Q148 411 134.5 390.5 Q121 370 125 348 Q101 425 111 486 Q115 512 127 537 Q139 562 162.5 581.5 Q186 601 223.5 613 Q261 625 316 625 Q343 625 365 621 Q387 617 404 609 Q416 650 444.5 685 Q473 720 515 745.5 Q557 771 609 785.5 Q661 800 719 800 Z M558 553 Q559 555 559 556 Q559 557 560 559 Q567 581 584 599 Q601 618 618.5 629 Q636 640 653 650 Q667 658 679.5 665.5 Q692 673 703 684 Q719 698 726 711 Q733 724 736 732 L737 733 Q730 735 720 735 Q710 735 702 734 Q686 732 674 729 L672 731 L673 729 Q669 715 654 701 Q639 687 629 679 Q627 678 624 675 L619 671 Q604 659 591 646 Q586 640 579.5 632 Q573 624 568 615 Q560 602 557 582 Q555 576 555 569.5 Q555 563 555 558 L556 556 Q556 551 557 548 L557 550 L558 553 L558 553 Z M580 505 Q584 515 596.5 535 Q609 555 649 575 Q693 596 754 603 Q790 608 821 608.5 Q852 609 875 607 Q873 618 868.5 630 Q864 642 859 651 Q857 653 856 655 Q855 657 853 659 L852 662 L851 662 Q848 663 841 663 Q834 663 824 663 L820 663 Q804 663 785 661 Q766 659 745 655 Q679 643 631 612 Q602 593 586 573 Q570 553 564 527 Q562 520 571 503 Q573 500 573.5 497.5 Q574 495 576 493 Q577 495 577.5 498 Q578 501 580 505 Z M878 557 Q880 572 878 591 Q872 592 865.5 592 Q859 592 851 592 L845 592 Q818 592 789 588 Q760 584 733 577 Q706 570 683 559.5 Q660 549 645 535 Q616 506 625 467 Q630 445 645.5 433 Q661 421 676 416 Q679 415 681 415 Q683 415 685 414 Q685 415 684 416 Q681 419 679 422 Q674 431 671 440 Q664 466 684 486 Q718 522 827 522 L828 522 L870 521 Q871 524 873.5 533.5 Q876 543 878 557 Z M842 564 L858 564 L858 547 L842 547 L842 530 L824 530 L824 547 L808 547 L808 564 L824 564 L824 582 L842 582 L842 564 Z M305 186 Q363 186 406.5 178 Q450 170 482.5 157 Q515 144 537 127 Q559 110 573 93 Q606 52 611 0 L0 0 Q4 52 37 93 Q51 110 73 127 Q95 144 127.5 157 Q160 170 203.5 178 Q247 186 305 186 Z " />
<glyph glyph-name="e081" unicode="&#xe081;" horiz-adv-x="1094" d="M719 800 Q786 800 844.5 781 Q903 762 946.5 729.5 Q990 697 1015.5 653 Q1041 609 1041 560 Q1041 510 1015.5 466 Q990 422 946.5 389.5 Q903 357 844.5 338 Q786 319 719 319 Q705 319 692.5 320 Q680 321 667 323 L492 259 L575 346 Q560 351 549 355.5 Q538 360 529 365 Q520 370 511 376 Q502 382 491 390 Q488 372 484 360 Q480 348 477 344 Q475 361 473 366.5 Q471 372 474 378 Q451 380 432 388.5 Q413 397 390 422 Q386 421 388 410 Q389 405 392 399 Q374 402 357 410 Q343 417 329 428 Q315 439 308 459 Q303 457 302.5 451.5 Q302 446 304 440 Q306 433 309 425 Q289 432 272 443 Q258 453 246 469.5 Q234 486 235 512 Q226 490 206 470 Q186 450 167 430.5 Q148 411 134.5 390.5 Q121 370 125 348 Q101 425 111 486 Q115 512 127 537 Q139 562 162.5 581.5 Q186 601 223.5 613 Q261 625 316 625 Q343 625 365 621 Q387 617 404 609 Q416 650 444.5 685 Q473 720 515 745.5 Q557 771 609 785.5 Q661 800 719 800 Z M807 534 L919 615 L781 614 L739 746 L697 614 L558 615 L671 534 L627 403 L739 485 L850 403 L807 534 Z M305 186 Q363 186 406.5 178 Q450 170 482.5 157 Q515 144 537 127 Q559 110 573 93 Q606 52 611 0 L0 0 Q4 52 37 93 Q51 110 73 127 Q95 144 127.5 157 Q160 170 203.5 178 Q247 186 305 186 Z " />
<glyph glyph-name="e082" unicode="&#xe082;" horiz-adv-x="1094" d="M719 800 Q786 800 844.5 781 Q903 762 946.5 729.5 Q990 697 1015.5 653 Q1041 609 1041 560 Q1041 510 1015.5 466 Q990 422 946.5 389.5 Q903 357 844.5 338 Q786 319 719 319 Q705 319 692.5 320 Q680 321 667 323 L492 259 L575 346 Q560 351 549 355.5 Q538 360 529 365 Q520 370 511 376 Q502 382 491 390 Q488 372 484 360 Q480 348 477 344 Q475 361 473 366.5 Q471 372 474 378 Q451 380 432 388.5 Q413 397 390 422 Q386 421 388 410 Q389 405 392 399 Q374 402 357 410 Q343 417 329 428 Q315 439 308 459 Q303 457 302.5 451.5 Q302 446 304 440 Q306 433 309 425 Q289 432 272 443 Q258 453 246 469.5 Q234 486 235 512 Q226 490 206 470 Q186 450 167 430.5 Q148 411 134.5 390.5 Q121 370 125 348 Q101 425 111 486 Q115 512 127 537 Q139 562 162.5 581.5 Q186 601 223.5 613 Q261 625 316 625 Q343 625 365 621 Q387 617 404 609 Q416 650 444.5 685 Q473 720 515 745.5 Q557 771 609 785.5 Q661 800 719 800 Z M902 509 L550 509 L550 467 L902 467 L902 509 Z M902 597 L550 597 L550 555 L902 555 L902 597 Z M902 685 L550 685 L550 643 L902 643 L902 685 Z M305 186 Q363 186 406.5 178 Q450 170 482.5 157 Q515 144 537 127 Q559 110 573 93 Q606 52 611 0 L0 0 Q4 52 37 93 Q51 110 73 127 Q95 144 127.5 157 Q160 170 203.5 178 Q247 186 305 186 Z " />
<glyph glyph-name="e083" unicode="&#xe083;" horiz-adv-x="1000" d="" />
<glyph glyph-name="e084" unicode="&#xe084;" horiz-adv-x="1000" d="" />
<glyph glyph-name="e085" unicode="&#xe085;" horiz-adv-x="955" d="M742 456 Q742 485 722.5 504.5 Q703 524 674 524 Q645 524 625.5 504.5 Q606 485 606 456 Q606 428 625.5 408 Q645 388 674 388 Q703 388 722.5 408 Q742 428 742 456 Z M542 456 Q542 485 522.5 504.5 Q503 524 474 524 Q445 524 425.5 504.5 Q406 485 406 456 Q406 428 425.5 408 Q445 388 474 388 Q503 388 522.5 408 Q542 428 542 456 Z M339 456 Q339 485 319.5 504.5 Q300 524 271 524 Q242 524 222.5 504.5 Q203 485 203 456 Q203 428 222.5 408 Q242 388 271 388 Q300 388 319.5 408 Q339 428 339 456 Z M455 800 Q549 800 632 773.5 Q715 747 776.5 700.5 Q838 654 874 592 Q910 530 910 460 Q910 390 874 328 Q838 266 776.5 220 Q715 174 632 147.5 Q549 121 455 121 Q436 121 417.5 122.5 Q399 124 380 126 L232 0 L277 148 Q216 167 165 198.5 Q114 230 77.5 270.5 Q41 311 20.5 359 Q0 407 0 460 Q0 530 36 592 Q72 654 133.5 700.5 Q195 747 278 773.5 Q361 800 455 800 Z " />
<glyph glyph-name="e086" unicode="&#xe086;" horiz-adv-x="1217" d="M466 532 Q471 523 475.5 511.5 Q480 500 482 491 L482 489 L480 489 Q442 493 372 486 Q349 483 325.5 477.5 Q302 472 279 461 Q245 444 234 427 Q223 410 219 400 Q217 395 216.5 391.5 Q216 388 215 386 L215 385 Q214 385 214 386 Q212 388 210 391 Q208 394 206 398 Q204 404 201.5 410.5 Q199 417 200 421 Q207 448 222.5 465.5 Q238 483 261 498 Q303 525 363 537 Q383 541 401 542.5 Q419 544 433 544 Q441 544 448 544 Q455 544 458 543 L460 543 Q460 543 461 542 Q462 540 463.5 537 Q465 534 466 532 Z M359 606 Q359 606 359 604 Q356 597 350 585 Q344 573 328 559 Q316 548 303 540 Q290 532 276.5 524 Q263 516 249 506.5 Q235 497 222 483 Q213 473 208.5 464 Q204 455 202 449 Q201 446 200.5 444.5 Q200 443 199 440 Q197 436 197 433 Q197 433 196 432 L195 433 Q195 434 194.5 437 Q194 440 193 446 L193 448 Q191 459 194 470 Q196 486 204 500 Q208 508 213.5 514.5 Q219 521 225 528 Q232 535 239 541 Q246 547 254 554 Q257 556 263.5 561 Q270 566 276.5 572.5 Q283 579 289 586.5 Q295 594 297 601 L298 602 L299 602 Q304 604 311 605 Q318 606 325 607 Q333 608 342 608 Q351 608 358 606 L359 606 Z M484 478 Q486 461 484 447 Q482 436 480.5 427.5 Q479 419 477 414 L476 413 L474 413 L437 413 Q385 415 355 406 Q325 397 311 383 Q303 375 300 365 Q297 355 300 344 Q302 339 303.5 335 Q305 331 307 329 Q308 327 311 324 Q311 323 313 321 Q314 320 315 320 L316 319 Q316 318 315 318 L311 318 Q309 318 301 320 Q290 323 275 333.5 Q260 344 255 367 Q250 387 255 402 Q260 417 273 430 Q286 443 307 452.5 Q328 462 352.5 468 Q377 474 402.5 477.5 Q428 481 452 481 Q460 481 467.5 481 Q475 481 482 480 L483 480 Q483 479 483.5 479 Q484 479 484 478 Z M471 454 L456 454 L456 469 L443 469 L443 454 L428 454 L428 441 L443 441 L443 426 L456 426 L456 441 L471 441 L471 454 Z M403 534 L411 534 L411 526 L403 526 L403 517 L395 517 L395 526 L386 526 L386 534 L395 534 L395 542 L403 542 L403 534 Z M478 244 Q496 182 547 133 L93 133 Q73 133 56.5 140 Q40 147 27 159.5 Q14 172 7 189 Q0 206 0 225 L0 707 Q0 746 27 773 Q54 800 93 800 L871 800 Q890 800 907 793 Q924 786 936.5 773 Q949 760 956.5 743 Q964 726 964 707 L964 565 Q939 570 913 572.5 Q887 575 860 575 L853 575 L853 689 L111 689 L111 244 L478 244 L478 244 Z M59 450 Q67 450 72.5 455.5 Q78 461 78 469 Q78 477 72.5 482 Q67 487 59 487 Q51 487 45.5 482 Q40 477 40 469 Q40 461 45.5 455.5 Q51 450 59 450 Z M1159 302 Q1159 266 1145 233.5 Q1131 201 1105.5 174 Q1080 147 1045.5 126 Q1011 105 969 92 L998 0 L893 77 Q872 74 850 74 Q760 74 687 108 Q614 142 575 197 Q558 220 549 246.5 Q540 273 540 302 Q540 345 561 383.5 Q582 422 618.5 452 Q655 482 704.5 502 Q754 522 811 527 Q821 528 830 528.5 Q839 529 850 529 Q914 529 970.5 511 Q1027 493 1069 462.5 Q1111 432 1135 390.5 Q1159 349 1159 302 Z M703 282 Q717 282 728 292.5 Q739 303 739 318 Q739 333 728 343.5 Q717 354 703 354 Q688 354 677 343.5 Q666 333 666 318 Q666 303 677 292.5 Q688 282 703 282 Z M847 282 Q862 282 872.5 292.5 Q883 303 883 318 Q883 333 872.5 343.5 Q862 354 847 354 Q832 354 821.5 343.5 Q811 333 811 318 Q811 303 821.5 292.5 Q832 282 847 282 Z M992 282 Q1006 282 1017 292.5 Q1028 303 1028 318 Q1028 333 1017 343.5 Q1006 354 992 354 Q977 354 966 343.5 Q955 333 955 318 Q955 303 966 292.5 Q977 282 992 282 Z " />
<glyph glyph-name="e087" unicode="&#xe087;" horiz-adv-x="1158" d="M1106 262 Q1106 224 1091 189.5 Q1076 155 1049 126 Q1022 97 984.5 74.5 Q947 52 902 38 L934 -60 L822 22 Q811 21 799 20 Q787 19 775 19 Q679 19 601.5 55.5 Q524 92 482 150 Q464 176 454 204 Q444 232 444 262 Q444 308 466.5 349.5 Q489 391 528 423.5 Q567 456 620 476.5 Q673 497 734 503 Q744 505 754 505 Q764 505 775 505 Q844 505 904 486 Q964 467 1009 434 Q1054 401 1080 357 Q1106 313 1106 262 Z M871 383 L768 288 L665 383 L665 319 L736 256 L665 192 L665 128 L768 224 L871 128 L871 191 L799 256 L871 321 L871 383 Z M682 529 Q621 523 568 502.5 Q515 482 476 449.5 Q437 417 415 375.5 Q393 334 393 288 Q393 258 403 230 Q413 202 430 176 Q420 175 410 174.5 Q400 174 389 174 Q366 174 342 177 L230 95 L262 193 Q217 206 179.5 228.5 Q142 251 115 280.5 Q88 310 73 344.5 Q58 379 58 417 Q58 467 84 511.5 Q110 556 155 589 Q200 622 260 641 Q320 660 389 660 Q486 660 563 624 Q640 588 682 529 Z M297 342 L249 342 L249 297 L297 297 L297 342 Z M354 466 Q357 475 357 488 Q357 504 351 519 Q346 531 334 541 Q322 551 309 555 Q294 560 278 560 Q261 560 242 553 Q228 546 215 533 Q209 528 205 519 Q201 510 198 502 Q195 494 193.5 487 Q192 480 192 460 L233 460 Q233 480 235.5 489 Q238 498 243 506 Q249 513 257 519.5 Q265 526 276 526 Q279 526 281.5 525.5 Q284 525 287 524 Q291 523 299 517 Q301 515 303.5 512 Q306 509 308 505 Q312 498 312 486 Q312 477 309 471 Q307 463 303 459 Q300 455 294 449 Q286 443 283 439 Q276 433 270 426 Q268 423 265.5 419 Q263 415 261 411 Q258 401 256 389 Q255 384 254.5 380 Q254 376 254 357 L293 357 Q293 367 293 371.5 Q293 376 293.5 378 Q294 380 294.5 381 Q295 382 296 384 Q297 389 298.5 395 Q300 401 302 404 Q304 408 307 411 Q310 414 313 417 Q315 419 318.5 422 Q322 425 325 428 Q328 430 331 433 Q334 436 337 438 Q342 442 347 450 Q349 453 350.5 457 Q352 461 354 466 Z " />
<glyph glyph-name="e088" unicode="&#xe088;" horiz-adv-x="840" d="M555 572 Q555 543 544.5 518.5 Q534 494 515.5 475.5 Q497 457 472 446.5 Q447 436 419 436 Q391 436 366 446.5 Q341 457 322.5 475.5 Q304 494 293.5 518.5 Q283 543 283 572 Q283 600 293.5 624.5 Q304 649 322.5 667.5 Q341 686 366 696.5 Q391 707 419 707 Q447 707 472 696.5 Q497 686 515.5 667.5 Q534 649 544.5 624.5 Q555 600 555 572 Z M488 -8 Q496 -8 509.5 9.5 Q523 27 537.5 55.5 Q552 84 566 120.5 Q580 157 590.5 195 Q601 233 605.5 269.5 Q610 306 606 334.5 Q602 363 587.5 380.5 Q573 398 544 398 Q481 398 418 396 Q355 394 292 394 Q263 394 248.5 376.5 Q234 359 230 331 Q226 303 230.5 267 Q235 231 245.5 193 Q256 155 270 119 Q284 83 298.5 55 Q313 27 326.5 9.5 Q340 -8 348 -8 L488 -8 Z M192 410 Q227 410 254.5 429.5 Q282 449 293 481 Q276 499 266.5 522 Q257 545 257 572 Q257 586 260 600 Q246 611 229 618 Q212 625 192 625 Q170 625 150.5 616.5 Q131 608 116.5 593.5 Q102 579 93.5 559 Q85 539 85 517 Q85 495 93.5 475.5 Q102 456 116.5 441.5 Q131 427 150.5 418.5 Q170 410 192 410 Z M225 379 Q191 378 157.5 377.5 Q124 377 92 377 Q62 377 51 353.5 Q40 330 42 294.5 Q44 259 55.5 218 Q67 177 82 141.5 Q97 106 112 82.5 Q127 59 136 59 L247 59 Q253 59 264 73 Q247 110 231.5 155.5 Q216 201 208 244.5 Q200 288 203 324.5 Q206 361 225 379 Z M644 410 Q609 410 581.5 429.5 Q554 449 543 481 Q560 499 569.5 522 Q579 545 579 572 Q579 586 576 600 Q590 611 607 618 Q624 625 644 625 Q666 625 685.5 616.5 Q705 608 719.5 593.5 Q734 579 742.5 559 Q751 539 751 517 Q751 495 742.5 475.5 Q734 456 719.5 441.5 Q705 427 685.5 418.5 Q666 410 644 410 Z M611 379 Q645 378 678 377.5 Q711 377 744 377 Q774 377 785 353.5 Q796 330 794 294.5 Q792 259 780.5 218 Q769 177 754 141.5 Q739 106 724 82.5 Q709 59 700 59 L589 59 Q583 59 572 73 Q589 110 604.5 155.5 Q620 201 627.5 244.5 Q635 288 632.5 324.5 Q630 361 611 379 Z " />
<glyph glyph-name="e089" unicode="&#xe089;" horiz-adv-x="1000" d="M683 491 L158 491 L158 441 L683 441 L683 491 Z M683 375 L158 375 L158 326 L683 326 L683 375 Z M683 260 L158 260 L158 210 L683 210 L683 260 Z M806 351 Q806 306 788.5 265.5 Q771 225 740 190.5 Q709 156 666 129 Q623 102 571 86 L609 -39 L484 67 Q468 65 452.5 64 Q437 63 420 63 Q340 63 270 85.5 Q200 108 147.5 147 Q95 186 64.5 238.5 Q34 291 34 351 Q34 411 64.5 463.5 Q95 516 147.5 555 Q200 594 270 616.5 Q340 639 420 639 Q500 639 570.5 616.5 Q641 594 693.5 555 Q746 516 776 463.5 Q806 411 806 351 Z " />
<glyph glyph-name="e08a" unicode="&#xe08a;" horiz-adv-x="919" d="M919 245 Q919 212 906 181.5 Q893 151 869.5 125.5 Q846 100 814 79.5 Q782 59 743 47 L737 -46 L678 34 Q666 32 654.5 31 Q643 30 631 30 Q571 30 518.5 47 Q466 64 427 93 Q388 122 365.5 161.5 Q343 201 343 245 Q343 290 365.5 329 Q388 368 427 397 Q466 426 518.5 443 Q571 460 631 460 Q691 460 743.5 443 Q796 426 835 397 Q874 368 896.5 329 Q919 290 919 245 Z M546 491 Q470 470 420.5 439 Q371 408 343.5 372.5 Q316 337 307 299 Q298 261 301.5 226 Q305 191 318.5 160.5 Q332 130 350 109 Q342 108 330.5 107.5 Q319 107 311 107 Q294 107 279 108.5 Q264 110 249 112 L182 48 L182 128 Q142 142 108.5 163.5 Q75 185 51 212 Q27 239 13.5 271.5 Q0 304 0 339 Q0 387 24.5 429 Q49 471 91 502.5 Q133 534 189.5 552.5 Q246 571 311 571 Q380 571 442 550 Q504 529 546 491 Z " />
<glyph glyph-name="e08b" unicode="&#xe08b;" horiz-adv-x="1250" d="M817 656 Q894 656 962 634 Q1030 612 1080.5 574.5 Q1131 537 1160.5 486 Q1190 435 1190 378 Q1190 334 1173 294.5 Q1156 255 1126 222 Q1096 189 1054.5 163 Q1013 137 963 121 L955 0 L878 103 Q863 101 848 100 Q833 99 817 99 Q740 99 672 121 Q604 143 553.5 181 Q503 219 473.5 269.5 Q444 320 444 378 Q444 435 473.5 486 Q503 537 553.5 574.5 Q604 612 672 634 Q740 656 817 656 Z M811 178 Q833 178 845 190 Q858 202 858 221 Q858 239 845 251 Q831 263 811 263 Q790 263 777 251 Q764 239 764 221 Q764 203 777 191 Q790 178 811 178 Z M768 554 L778 299 L844 299 L854 554 L768 554 Z M707 695 Q608 667 544.5 627.5 Q481 588 445 542 Q409 496 397.5 447 Q386 398 391 352.5 Q396 307 413.5 267 Q431 227 454 200 Q443 199 428 198.5 Q413 198 402 198 Q361 198 322 204 L236 122 L236 225 Q184 243 140.5 271 Q97 299 66 334.5 Q35 370 17.5 411.5 Q0 453 0 499 Q0 561 31.5 616 Q63 671 117.5 712 Q172 753 245.5 776.5 Q319 800 402 800 Q492 800 572 772.5 Q652 745 707 695 Z M278 423 Q276 427 274 433 Q272 441 272 444 Q272 453 275 459 Q276 466 281 472 Q283 474 285.5 477 Q288 480 291 483 Q294 486 297.5 489.5 Q301 493 306 496 Q312 501 317.5 506 Q323 511 328 516 Q336 524 343 536 Q350 546 353 558 Q356 570 356 584 Q356 608 349 623 Q340 640 327 650 Q312 660 294 665 Q272 670 253 670 Q229 670 208 664 Q197 662 187.5 657.5 Q178 653 168 648 L168 577 Q187 593 206 600 Q227 608 244 608 Q252 608 260 605 Q268 601 272 598 Q275 595 279 587 Q282 581 282 574 Q282 565 279 558 Q278 552 272 545 Q270 541 267 538 Q264 535 261 532 Q257 528 253.5 525 Q250 522 245 518 Q236 510 230 503 Q227 499 224 495.5 Q221 492 219 488 Q217 484 216 480 Q215 476 213 471 Q212 466 211.5 461.5 Q211 457 211 451 Q211 448 211 444.5 Q211 441 212 437 Q214 427 216 423 L278 423 Z M250 319 Q269 319 282 330 Q294 342 294 359 Q294 376 281 386 Q270 397 250 397 Q230 397 219 386 Q206 375 206 359 Q206 342 219 331 Q231 319 250 319 Z " />
<glyph glyph-name="e08c" unicode="&#xe08c;" horiz-adv-x="955" d="M455 800 Q549 800 632 773.5 Q715 747 776.5 700.5 Q838 654 874 592 Q910 530 910 460 Q910 390 874 328 Q838 266 776.5 220 Q715 174 632 147.5 Q549 121 455 121 Q436 121 417.5 122.5 Q399 124 380 126 L232 0 L277 148 Q216 167 165 198.5 Q114 230 77.5 270.5 Q41 311 20.5 359 Q0 407 0 460 Q0 530 36 592 Q72 654 133.5 700.5 Q195 747 278 773.5 Q361 800 455 800 Z M479 369 Q475 377 474 382 Q472 392 472 397 Q472 407 475 416 Q477 420 478.5 424 Q480 428 483 431 Q485 435 488.5 438.5 Q492 442 496 446 Q500 450 504.5 454 Q509 458 515 463 Q523 469 529.5 475.5 Q536 482 542 488 Q548 494 553 500 Q558 506 562 513 Q567 520 570 527 Q573 534 575 541 Q577 549 578 557.5 Q579 566 579 575 Q579 605 569 624 Q559 645 541 658 Q522 672 499 678 Q475 684 447 684 Q415 684 390 677 Q363 669 339 656 L339 565 Q361 586 387 595 Q411 605 436 605 Q447 605 456 602 Q465 597 471 593 Q477 587 480 579 Q484 572 484 562 Q484 551 481 542 Q478 532 472 525 Q469 520 465.5 516.5 Q462 513 457 508 Q452 504 447.5 499.5 Q443 495 437 490 Q432 485 427 481 Q422 477 418 472 Q411 464 404 453 Q402 448 400 442.5 Q398 437 396 431 Q395 425 394.5 419 Q394 413 394 406 Q394 401 394 396.5 Q394 392 395 387 Q396 382 397 378 Q398 374 400 369 L479 369 Z M444 237 Q467 237 484 252 Q499 265 499 287 Q499 308 483 323 Q467 337 444 337 Q421 337 404 323 Q388 308 388 287 Q388 267 404 252 Q419 237 444 237 Z " />
<glyph glyph-name="e08d" unicode="&#xe08d;" horiz-adv-x="846" d="M420 626 Q501 626 573 603 Q645 580 698 540 Q751 500 782 446.5 Q813 393 813 332 Q813 271 782 217.5 Q751 164 698 124.5 Q645 85 573 62 Q501 39 420 39 Q403 39 387 40 Q371 41 355 43 L228 -66 L266 62 Q213 79 169.5 106 Q126 133 94 168.5 Q62 204 44.5 245.5 Q27 287 27 332 Q27 393 58 446.5 Q89 500 142 540 Q195 580 267 603 Q339 626 420 626 Z " />
<glyph glyph-name="e08e" unicode="&#xe08e;" horiz-adv-x="840" d="M246 427 Q261 487 288 540 Q300 562 315 584.5 Q330 607 349.5 627.5 Q369 648 393 664.5 Q417 681 447 690 Q439 691 432 692 Q425 693 418 693.5 Q411 694 406 694 Q368 694 335.5 680 Q303 666 278 641 Q253 616 239 583 Q225 550 225 512 Q225 466 246 427 Z M521 86 Q520 63 510.5 43.5 Q501 24 486 9.5 Q471 -5 451 -13.5 Q431 -22 408 -22 Q385 -22 365 -13.5 Q345 -5 330 9.5 Q315 24 305.5 43.5 Q296 63 295 86 L521 86 Z M523 170 L294 170 L294 110 L523 110 L523 170 Z M407 748 Q455 748 497.5 729.5 Q540 711 571.5 679.5 Q603 648 621.5 606 Q640 564 640 516 Q640 484 627.5 455 Q615 426 601 403 Q583 377 562 353 Q547 338 536.5 312.5 Q526 287 526 266 L526 259 Q526 238 511.5 223.5 Q497 209 476 209 L337 209 Q316 209 301.5 223.5 Q287 238 287 259 L287 266 Q287 287 276.5 312.5 Q266 338 251 353 Q229 377 212 403 Q197 426 185 455 Q173 484 173 516 Q173 564 191.5 606 Q210 648 241.5 679.5 Q273 711 316 729.5 Q359 748 407 748 Z " />
<glyph glyph-name="e08f" unicode="&#xe08f;" horiz-adv-x="840" d="M800 548 Q747 561 704 564 Q661 567 626.5 564 Q592 561 565.5 552.5 Q539 544 519 533 Q472 507 447 466 L444 -43 Q477 -18 510 -3.5 Q543 11 574 18.5 Q605 26 634 27 Q663 28 688 25 Q747 19 800 -6 L800 548 L800 548 Z M40 552 Q92 564 135 567 Q178 570 212.5 566.5 Q247 563 273.5 554.5 Q300 546 320 535 Q367 509 392 469 L396 -39 Q325 5 260.5 16.5 Q196 28 147 24 Q89 20 40 -1 L40 552 L40 552 Z " />
<glyph glyph-name="e090" unicode="&#xe090;" horiz-adv-x="840" d="M783 421 L783 398 L780 398 L535 398 L464 398 L464 582 L374 582 L374 398 L371 398 L59 398 L55 398 L55 421 L55 496 Q56 532 81.5 558 Q107 584 143 584 L219 584 L220 584 L298 584 L268 614 Q248 634 248 661.5 Q248 689 268 709 Q288 729 315.5 729 Q343 729 363 709 L420 652 L476 709 Q496 729 523.5 729 Q551 729 571 709 Q591 689 591 661.5 Q591 634 571 614 L541 584 L619 584 L695 584 Q732 584 757.5 558 Q783 532 783 496 L783 421 Z M383 594 Q391 602 390 614.5 Q389 627 380 637 L341 676 Q331 686 318.5 686.5 Q306 687 298 679 Q290 671 290.5 658.5 Q291 646 301 636 L340 597 Q350 588 362.5 587 Q375 586 383 594 Z M538 636 Q548 646 548.5 658.5 Q549 671 541 679 Q533 687 520.5 686.5 Q508 686 499 676 L459 637 Q450 627 449.5 614.5 Q449 602 457 594 Q465 586 477.5 587 Q490 588 499 597 L538 636 Z M464 -11 L464 309 L535 309 L738 309 L741 309 L741 152 L741 77 Q741 41 715.5 15 Q690 -11 653 -11 L557 -11 L464 -11 Z M374 -11 L374 309 L304 309 L101 309 L98 309 L98 152 L98 77 Q98 41 123.5 15 Q149 -11 185 -11 L186 -11 L281 -11 L282 -11 L374 -11 Z " />
<glyph glyph-name="e091" unicode="&#xe091;" horiz-adv-x="840" d="M592 685 Q635 685 673.5 668.5 Q712 652 741 623 Q770 594 786.5 555.5 Q803 517 803 474 Q803 423 787.5 382 Q772 341 746 305.5 Q720 270 687 238 Q654 206 618 174 Q571 132 524.5 87 Q478 42 438 -18 L420 -45 L402 -19 Q360 41 313.5 86 Q267 131 223 169 Q185 202 151.5 234 Q118 266 92 301.5 Q66 337 51 379 Q36 421 36 474 Q36 517 52.5 555.5 Q69 594 98 623 Q127 652 165.5 668.5 Q204 685 248 685 Q300 685 345 661.5 Q390 638 420 597 Q449 638 494.5 661.5 Q540 685 592 685 Z M693 476 L597 476 L597 571 L514 571 L514 476 L419 476 L419 393 L514 393 L514 298 L597 298 L597 393 L693 393 L693 476 Z " />
<glyph glyph-name="e092" unicode="&#xe092;" horiz-adv-x="840" d="M590 682 Q633 682 671.5 665.5 Q710 649 738.5 620.5 Q767 592 783.5 553.5 Q800 515 800 472 Q800 422 784.5 381 Q769 340 743.5 305 Q718 270 685 238.5 Q652 207 616 176 Q569 134 523 89.5 Q477 45 438 -15 L420 -42 L402 -16 Q361 43 314.5 87.5 Q268 132 225 170 Q188 203 154.5 234.5 Q121 266 95.5 301 Q70 336 55 377.5 Q40 419 40 472 Q40 515 56.5 553.5 Q73 592 101.5 620.5 Q130 649 168 665.5 Q206 682 250 682 Q301 682 346 658.5 Q391 635 420 594 Q449 635 494 658.5 Q539 682 590 682 Z " />
<glyph glyph-name="e093" unicode="&#xe093;" horiz-adv-x="1050" d="M696 564 L537 331 L453 418 L453 337 L544 244 L696 466 L696 564 Z M586 660 Q629 660 667 643.5 Q705 627 733.5 598.5 Q762 570 778.5 532 Q795 494 795 451 Q795 401 779.5 360.5 Q764 320 738.5 285 Q713 250 680 219 Q647 188 612 157 Q566 115 520 70.5 Q474 26 435 -34 L417 -60 L399 -34 Q358 25 312 69 Q266 113 223 151 Q186 183 152.5 214.5 Q119 246 94 281 Q69 316 54 357.5 Q39 399 39 451 Q39 494 55.5 532 Q72 570 100 598.5 Q128 627 166 643.5 Q204 660 248 660 Q299 660 343.5 637 Q388 614 417 573 Q446 614 490.5 637 Q535 660 586 660 Z " />
<glyph glyph-name="e094" unicode="&#xe094;" horiz-adv-x="1050" d="M677 562 L571 464 L465 562 L465 479 L537 412 L465 346 L465 263 L571 361 L677 263 L677 346 L605 412 L677 479 L677 562 Z M585 660 Q628 660 666 643.5 Q704 627 732.5 598.5 Q761 570 777.5 532 Q794 494 794 451 Q794 401 778.5 360.5 Q763 320 737.5 285 Q712 250 679.5 219 Q647 188 612 157 Q565 115 519 70.5 Q473 26 434 -34 L417 -60 L398 -34 Q358 25 311.5 69 Q265 113 222 151 Q185 183 151.5 214.5 Q118 246 93 281 Q68 316 53 357.5 Q38 399 38 451 Q38 494 54.5 532 Q71 570 99.5 598.5 Q128 627 166 643.5 Q204 660 247 660 Q298 660 342.5 637 Q387 614 416 573 Q445 614 489.5 637 Q534 660 585 660 Z " />
<glyph glyph-name="e095" unicode="&#xe095;" horiz-adv-x="840" d="M562 276 L652 3 L420 173 L188 3 L278 276 L44 444 L332 443 L420 718 L507 443 L796 444 L562 276 Z " />
</font>
</svg>
