<svg data-name="Ebene 2" xmlns="http://www.w3.org/2000/svg" viewBox="0 0 116 122"><path d="M66 57h12m-40 0h12" stroke="#000" fill="none" stroke-miterlimit="10"/><path d="M58 36v12m.27 21.97v12" stroke="#0c2231" fill="none" stroke-miterlimit="10"/><path d="M65.22 74C75.6 70.17 80.78 59 76.8 49s-15.64-15-26-11.15-15.58 14.96-11.6 24.96A19.81 19.81 0 0050.78 74l-13.56 34C7.32 97-7.61 64.64 3.87 35.85s45-43.18 74.91-32.13 44.83 43.36 33.35 72.15A56.93 56.93 0 0178.78 108L65.22 74" fill="#e3032e"/><path d="M57.46 83.78a22.34 22.34 0 01-7.69-1.36L37 118.38a59.6 59.6 0 0042-.41L66.23 82a22.31 22.31 0 01-8.77 1.78z" fill="#0c2231"/><rect x="49.06" y="97.67" width="11.05" height="2.67" rx="1.26" fill="#75be8e"/><rect x="56.41" y="102.98" width="10.64" height="2.67" rx="1.26" fill="#e8497f"/><rect x="49.06" y="108.28" width="17.99" height="2.67" rx="1.26" fill="#7dbc69"/><rect x="48.95" y="102.98" width="6.77" height="2.67" rx="1.26" fill="#bcd2e6"/><rect x="60.79" y="97.67" width="6.26" height="2.67" rx="1.26" fill="#e9aa00"/><path d="M62.69 69A13.45 13.45 0 0071 56.45a13 13 0 10-26 0A13.47 13.47 0 0053.34 69" stroke-width="3" stroke="#0c2231" fill="none" stroke-miterlimit="10"/></svg>